<svg width="34" height="34" viewBox="0 0 34 34" fill="none" xmlns="http://www.w3.org/2000/svg">
<path d="M17 13.64C14.81 13.64 13.03 15.42 13.03 17.61C13.03 19.8 14.81 21.58 17 21.58C19.19 21.58 20.97 19.8 20.97 17.61C20.97 15.41 19.19 13.64 17 13.64ZM17 11.03C13.38 11.03 10.43 13.98 10.43 17.6C10.43 21.22 13.38 24.17 17 24.17C20.62 24.17 23.57 21.22 23.57 17.6C23.57 13.98 20.62 11.03 17 11.03ZM17 23.26C13.88 23.26 11.34 20.72 11.34 17.6C11.34 14.48 13.88 11.94 17 11.94C20.12 11.94 22.66 14.48 22.66 17.6C22.66 20.73 20.12 23.26 17 23.26ZM25.39 11.18C24.63 11.18 24.01 11.8 24.01 12.56C24.01 13.32 24.63 13.94 25.39 13.94C26.15 13.94 26.77 13.32 26.77 12.56C26.78 11.8 26.16 11.18 25.39 11.18ZM25.95 8.34H11.97V7.13H8.31V8.34H8.05C6.09 8.34 4.5 9.93 4.5 11.89V23.33C4.5 25.29 6.09 26.88 8.05 26.88H25.96C27.92 26.88 29.51 25.29 29.51 23.33V11.88C29.5 9.93 27.91 8.34 25.95 8.34ZM27.9 23.33C27.9 24.4 27.03 25.28 25.95 25.28H8.05C6.98 25.28 6.1 24.41 6.1 23.33V11.88C6.1 10.81 6.97 9.94001 8.05 9.94001H25.96C27.03 9.94001 27.91 10.81 27.91 11.88V23.33H27.9Z" fill="#535766"/>
<path d="M17 33C25.8366 33 33 25.8366 33 17C33 8.16344 25.8366 1 17 1C8.16344 1 1 8.16344 1 17C1 25.8366 8.16344 33 17 33Z" stroke="#1B83B8" stroke-width="2" stroke-miterlimit="10"/>
<path d="M28.3099 5.69L5.68994 28.31" stroke="#1B83B8" stroke-width="2" stroke-miterlimit="10"/>
</svg>
