<svg width="51" height="32" viewBox="0 0 51 32" fill="none" xmlns="http://www.w3.org/2000/svg">
<path d="M49.3414 26.4773H48.5366C47.9055 26.4773 47.3848 25.9566 47.3848 25.3254V19.5976C47.3848 18.9665 47.9055 18.4457 48.5366 18.4457H49.3414C49.9725 18.4457 50.4932 18.9665 50.4932 19.5976V25.3254C50.4932 25.9566 49.9725 26.4773 49.3414 26.4773Z" fill="#535766"/>
<path d="M45.1597 29.8541C44.7337 29.8541 44.4023 29.5069 44.4023 29.0967V16.1105C44.4023 15.6844 44.7495 15.3531 45.1597 15.3531C45.5858 15.3531 45.9171 15.7002 45.9171 16.1105V29.0967C45.9329 29.5069 45.5858 29.8541 45.1597 29.8541Z" fill="#1B83B8"/>
<path d="M33.0416 29.8541C32.6155 29.8541 32.2842 29.5069 32.2842 29.0967V16.1105C32.2842 15.6844 32.6313 15.3531 33.0416 15.3531C33.4676 15.3531 33.799 15.7002 33.799 16.1105V29.0967C33.799 29.5069 33.4518 29.8541 33.0416 29.8541Z" fill="#1B83B8"/>
<path d="M35.4556 29.8541C35.0296 29.8541 34.6982 29.5069 34.6982 29.0967V16.1105C34.6982 15.6844 35.0454 15.3531 35.4556 15.3531C35.8817 15.3531 36.213 15.7002 36.213 16.1105V29.0967C36.2288 29.5069 35.8817 29.8541 35.4556 29.8541Z" fill="#1B83B8"/>
<path d="M37.8858 29.8541C37.4598 29.8541 37.1284 29.5069 37.1284 29.0967V16.1105C37.1284 15.6844 37.4756 15.3531 37.8858 15.3531C38.2961 15.3531 38.6432 15.7002 38.6432 16.1105V29.0967C38.6432 29.5069 38.3118 29.8541 37.8858 29.8541Z" fill="#1B83B8"/>
<path d="M40.3155 29.8541C39.8895 29.8541 39.5581 29.5069 39.5581 29.0967V16.1105C39.5581 15.6844 39.9052 15.3531 40.3155 15.3531C40.7258 15.3531 41.0729 15.7002 41.0729 16.1105V29.0967C41.0729 29.5069 40.7415 29.8541 40.3155 29.8541Z" fill="#1B83B8"/>
<path d="M45.6329 32H13.9958C12.6073 32 11.4712 30.8639 11.4712 29.4754V15.4478C11.4712 14.0592 12.6073 12.9231 13.9958 12.9231H45.6171C47.0057 12.9231 48.1418 14.0592 48.1418 15.4478V29.4754C48.1576 30.8797 47.0215 32 45.6329 32ZM13.9958 14.4537C13.4436 14.4537 13.0018 14.8955 13.0018 15.4478V29.4754C13.0018 30.0276 13.4436 30.4694 13.9958 30.4694H45.6171C46.1694 30.4694 46.6112 30.0276 46.6112 29.4754V15.4478C46.6112 14.8955 46.1694 14.4537 45.6171 14.4537H13.9958Z" fill="#535766"/>
<path d="M32.3788 0L27.0928 6.20119L29.9646 6.35897L27.0928 11.503L32.5366 5.17554L29.6016 5.23866L32.3788 0Z" fill="#1B83B8"/>
<path d="M28.3708 17.5306H22.0434V17.1992C22.0434 16.7732 21.6963 16.4418 21.286 16.4418H11.6608C9.97239 16.4418 8.59961 17.8146 8.59961 19.503V19.9448H6.04339C5.47535 19.9448 5.00197 20.4024 5.00197 20.9862V21.7121H0.757396C0.347139 21.7121 0 22.0434 0 22.4694C0 22.8955 0.347139 23.2268 0.757396 23.2268H4.98619V23.9527C4.98619 24.5207 5.44379 24.9941 6.02761 24.9941H8.58383V25.4359C8.58383 27.1243 9.95661 28.4971 11.645 28.4971H21.2702C21.6963 28.4971 22.0276 28.1499 22.0276 27.7397V27.4083H28.355C28.86 27.4083 29.2702 26.998 29.2702 26.4931V18.4616C29.3018 17.9408 28.8915 17.5306 28.3708 17.5306ZM24.9152 24.9941H23.4477C23.0217 24.9941 22.6903 24.647 22.6903 24.2367C22.6903 23.8107 23.0375 23.4793 23.4477 23.4793H24.9152C25.3412 23.4793 25.6726 23.8264 25.6726 24.2367C25.6726 24.647 25.3254 24.9941 24.9152 24.9941ZM24.9152 21.4754H23.4477C23.0217 21.4754 22.6903 21.1282 22.6903 20.718C22.6903 20.2919 23.0375 19.9606 23.4477 19.9606H24.9152C25.3412 19.9606 25.6726 20.3077 25.6726 20.718C25.6726 21.1282 25.3254 21.4754 24.9152 21.4754Z" fill="#535766"/>
<path d="M42.7457 29.8541C42.3196 29.8541 41.9883 29.5069 41.9883 29.0967V16.1105C41.9883 15.6844 42.3354 15.3531 42.7457 15.3531C43.1559 15.3531 43.5031 15.7002 43.5031 16.1105V29.0967C43.5031 29.5069 43.1559 29.8541 42.7457 29.8541Z" fill="#1B83B8"/>
</svg>
