<svg width="33" height="33" viewBox="0 0 33 33" fill="none" xmlns="http://www.w3.org/2000/svg">
<path d="M20.7686 5.78339C22.9686 7.98436 25.0986 10.1153 27.2086 12.2262C28.7786 10.6555 30.2786 9.15488 31.7786 7.65422C32.0786 7.35408 32.0786 6.87387 31.7786 6.58374L26.4186 1.22136C26.1186 0.921231 25.6286 0.931235 25.3286 1.22136C23.7886 2.75204 22.2886 4.26271 20.7686 5.78339Z" stroke="#1B83B8" stroke-miterlimit="10"/>
<path d="M20.4588 4.48281C20.4588 4.48281 19.2488 3.51238 18.1988 4.56285C14.3688 8.39455 10.5388 12.2262 6.69883 16.0679C5.18883 17.5786 5.15883 18.6291 6.57883 20.1998C6.63883 20.2698 6.68883 20.3498 6.79883 20.4899C6.27883 21.0101 5.76883 21.5304 5.25883 22.0306C4.85883 22.4208 4.73883 22.881 5.14883 23.2811C5.55883 23.6913 6.01883 23.5513 6.40883 23.1711C6.86883 22.7109 7.32883 22.2507 7.79883 21.7905C9.11883 20.4799 9.11883 20.4799 7.82883 19.1893C6.95883 18.3089 6.95883 18.0588 7.84883 17.1584C11.4888 13.5168 15.1188 9.8752 18.7588 6.24359C18.9288 6.07352 19.1188 5.91345 19.3288 5.73337C21.9888 8.39455 24.5988 11.0057 27.2588 13.6669C27.0288 13.897 26.8388 14.0871 26.6488 14.2772C23.1688 17.7587 19.6888 21.2402 16.2188 24.7118C14.7988 26.1324 14.7988 26.1324 13.3488 24.7018C13.2988 24.6518 13.2388 24.6017 13.1888 24.5417C12.7588 24.1015 12.3288 24.0815 11.8888 24.5217C11.1988 25.212 10.5088 25.9123 9.80883 26.5926C9.40883 26.9928 9.29883 27.443 9.72883 27.8432C10.1188 28.2133 10.5488 28.1033 10.9188 27.7231C11.4188 27.2029 11.9388 26.7027 12.4788 26.1624C14.6788 27.8832 15.3788 27.8432 17.2988 25.9223C20.9588 22.2607 24.6188 18.5991 28.2788 14.9374C28.8988 14.3172 29.2688 13.1366 28.5688 12.6164C28.5088 12.5964 20.4588 4.48281 20.4588 4.48281Z" fill="#535766"/>
<path d="M11.2501 23.365L9.63086 21.7451L0.000157175 31.38L1.61942 33L11.2501 23.365Z" fill="#535766"/>
</svg>
