<svg width="33" height="36" viewBox="0 0 33 36" fill="none" xmlns="http://www.w3.org/2000/svg">
<path d="M1.64015 10.79C1.77015 11.04 1.96015 11.25 1.99015 11.49C2.19015 13.02 2.89015 14.35 3.60015 15.67C4.62015 17.57 5.93015 19.3 7.35015 20.9C9.45015 23.27 11.8501 25.33 14.4601 27.13C15.9901 28.19 17.5702 29.15 19.2901 29.86C20.6402 30.42 22.0101 31.03 23.5301 30.99C23.7401 30.98 23.9501 31.05 24.1801 31.08C24.1701 31.4 24.0301 31.56 23.7601 31.61C22.3101 31.89 20.8801 31.85 19.4701 31.38C19.0301 31.23 18.5801 31.12 18.1501 30.97C17.3601 30.71 16.7001 31.14 16.0301 31.4C15.0101 31.79 14.0101 32.23 13.0301 32.71C12.5501 32.94 12.1701 32.9 11.7301 32.65C9.56015 31.46 7.61015 29.99 5.87015 28.23C4.68015 27.03 3.50015 25.81 2.65015 24.32C2.62015 24.27 2.59015 24.23 2.55015 24.19C1.72015 23.54 1.85015 22.71 2.12015 21.86C2.45015 20.85 2.76015 19.83 3.11015 18.83C3.25015 18.43 3.20015 18.08 3.02015 17.72C2.62015 16.92 2.17015 16.13 1.85015 15.3C1.30015 13.9 1.17015 12.44 1.45015 10.95C1.46015 10.93 1.52015 10.9 1.64015 10.79Z" fill="#535766"/>
<path d="M14.6 10.12C14.07 9.82998 13.58 9.54998 13.09 9.26998C11.54 8.39998 9.90996 7.69998 8.13996 7.44998C7.57996 7.36998 6.98997 7.40998 6.42997 7.51998C5.64997 7.66998 5.20996 8.27998 5.12997 9.08998C5.01997 10.34 5.46996 11.46 5.95996 12.56C6.90997 14.7 8.28996 16.58 9.82996 18.3C12.49 21.27 15.53 23.83 19.05 25.75C20.21 26.38 21.42 26.93 22.73 27.27C23.55 27.48 24.34 27.5 25.15 27.54C26.51 27.62 27.19 26.08 26.97 25.09C26.68 23.76 26.25 22.48 25.51 21.32C25.28 20.96 25.38 20.71 25.72 20.49C26.06 20.28 26.3 20.41 26.47 20.71C26.76 21.23 27.06 21.75 27.31 22.3C27.93 23.66 28.38 25.05 28.25 26.58C28.14 27.82 27.66 28.84 26.5 29.44C25.28 30.06 24.01 30.16 22.69 29.81C22.12 29.66 21.55 29.49 20.97 29.34C19.47 28.96 18.15 28.18 16.82 27.42C14.61 26.16 12.61 24.61 10.75 22.88C9.85996 22.05 9.05996 21.12 8.23996 20.21C7.49996 19.38 6.75996 18.54 6.07996 17.65C4.54996 15.64 3.33996 13.46 2.85996 10.94C2.55996 9.35998 2.86996 7.93998 4.16996 6.85998C4.59996 6.50998 5.08996 6.24998 5.64996 6.24998C6.65996 6.23998 7.68997 6.17998 8.68997 6.30998C9.48997 6.40998 10.28 6.70998 11.02 7.02998C12.17 7.52998 13.28 8.11998 14.39 8.70998C15.16 9.09998 15.18 9.30998 14.6 10.12Z" fill="#535766"/>
<path d="M31.1203 10.11C31.1503 9.59996 31.1803 9.27996 31.1903 8.95996C31.2003 8.18996 30.8203 7.70996 30.0803 7.55996C29.7803 7.49996 29.4903 7.43996 29.1903 7.40996C28.4903 7.33996 28.2903 7.50996 28.2703 8.20996C28.2603 8.94996 28.2703 9.68996 28.2703 10.43C28.2703 12.08 28.2303 13.73 28.2803 15.37C28.3103 16.42 27.8903 17.24 27.1503 17.9C25.6003 19.3 23.7603 19.96 21.6603 19.85C21.3603 19.83 21.0603 19.76 20.7803 19.67C19.4103 19.22 18.9703 18.02 19.7603 16.81C20.5203 15.65 21.6503 14.96 22.9303 14.46C23.8003 14.12 24.6803 14.09 25.5903 14.08C26.2203 14.07 26.3603 13.94 26.3703 13.3C26.3903 12.09 26.3803 10.88 26.3803 9.67996C26.3803 7.28996 26.3803 4.89996 26.3803 2.50996C26.3803 2.25996 26.3703 2.00996 26.4103 1.76996C26.4803 1.30996 26.8703 1.00996 27.3403 1.01996C27.8503 1.02996 28.1803 1.29996 28.2503 1.78996C28.2703 1.94996 28.2803 2.11996 28.2703 2.27996C28.1603 3.52996 28.8003 4.40996 29.6503 5.19996C30.1503 5.65996 30.6803 6.08996 31.1403 6.58996C31.7003 7.20996 32.1203 7.90996 32.0003 8.80996C31.9303 9.30996 31.7203 9.71996 31.1203 10.11Z" fill="#1B83B8"/>
<path d="M14.2201 34.6399C14.0301 34.78 13.8401 35 13.6301 35.04C12.6801 35.19 11.7201 35.2299 10.7901 34.8899C7.44009 33.66 4.79009 31.4499 2.57009 28.7599C1.58009 27.5599 0.840093 26.11 0.170093 24.69C-0.109907 24.1 0.0600926 23.29 0.0800926 22.58C0.0800926 22.44 0.340092 22.31 0.450092 22.2C1.33009 23.62 2.06009 25.0299 3.03009 26.2599C3.99009 27.4699 5.17009 28.5099 6.28009 29.5999C7.41009 30.6999 8.70009 31.61 10.0301 32.47C11.3301 33.31 12.7501 33.92 14.2401 34.38C14.2401 34.47 14.2301 34.5599 14.2201 34.6399Z" fill="#535766"/>
<path d="M18.5103 24.04C14.9503 21.89 12.1303 19.18 9.55029 16.06C9.76029 15.93 9.86029 15.81 9.97029 15.81C10.9503 15.74 11.9003 15.7 12.8603 16.12C14.2803 16.73 15.6003 17.45 16.6203 18.61C17.7303 19.88 18.5803 21.29 18.6403 23.04C18.6703 23.32 18.5803 23.6 18.5103 24.04Z" fill="#535766"/>
<path d="M23.1899 5.81997C22.6199 4.45997 22.5999 4.43997 21.3699 4.60997C21.3499 4.87997 21.3099 5.15997 21.3099 5.44997C21.2999 6.51997 21.2599 7.58997 21.3199 8.65997C21.3799 9.71997 20.8999 10.44 20.0499 10.94C19.3899 11.34 18.6699 11.62 17.8799 11.62C17.6399 11.62 17.3799 11.6 17.1499 11.53C16.1499 11.23 15.8999 10.58 16.4999 9.73997C17.0799 8.91997 17.9199 8.48997 18.8999 8.31997C19.0599 8.28997 19.2299 8.29997 19.3899 8.27997C20.1099 8.22997 20.1699 8.16997 20.1799 7.42997C20.1899 5.64997 20.1799 3.85997 20.1799 2.07997C20.1799 1.82997 20.1799 1.57997 20.2099 1.33997C20.2499 1.04997 20.4099 0.749972 20.7199 0.819972C20.9299 0.869972 21.2699 1.14997 21.2599 1.30997C21.1799 2.39997 21.8999 2.96997 22.5899 3.59997C23.1899 4.15997 23.6399 4.80997 23.1899 5.81997Z" fill="#1B83B8"/>
<path d="M18.75 12.8899C19.9 12.6499 20.41 12.9299 20.81 13.9899C20.58 14.1099 20.35 14.2299 20.1 14.3499C19.53 13.9799 18.95 13.6399 18.75 12.8899Z" fill="#535766"/>
</svg>
