<svg width="34" height="33" viewBox="0 0 34 33" fill="none" xmlns="http://www.w3.org/2000/svg">
<path d="M20.98 12.63C20.84 12.63 20.79 12.59 20.75 12.46C19.53 8.69 18.31 4.93 17.08 1.16C17.06 1.11 17.06 1.05 17 1C16.98 1.05 16.96 1.1 16.95 1.14C15.73 4.9 14.5 8.66 13.28 12.42C13.23 12.58 13 12.62 13 12.62L1 12.65L9.76 19.02C10.11 19.28 10.45 19.52 10.71 19.71C10.85 19.81 10.86 19.89 10.81 20.04C9.59 23.8 7.12 31.48 7.12 31.48C7.12 31.48 13.65 26.74 16.84 24.42C16.98 24.32 17.06 24.33 17.18 24.43C20.38 26.76 26.91 31.49 26.91 31.49C26.91 31.49 24.4 23.76 23.17 19.99C23.13 19.88 23.15 19.82 23.25 19.75C23.37 19.67 33 12.65 33 12.65C33 12.65 24.92 12.63 20.98 12.63Z" stroke="#0096D5" stroke-width="2" stroke-miterlimit="10" stroke-linecap="round" stroke-linejoin="round"/>
</svg>
