<svg width="32" height="37" viewBox="0 0 32 37" fill="none" xmlns="http://www.w3.org/2000/svg">
<path d="M19.7002 30.13H24.3602C24.8902 30.13 25.3202 29.7 25.3202 29.17V7.66997C25.3202 7.13997 24.8902 6.71997 24.3602 6.71997H11.9402C11.6902 6.71997 11.4502 6.81997 11.2802 6.98997L6.98018 11.13C6.79018 11.31 6.68018 11.56 6.68018 11.82V12.97C6.68018 12.97 17.8902 12.97 18.1202 12.97C18.4902 12.97 19.0802 13.24 19.0902 13.96C19.0902 14.8 19.0802 30.14 19.0802 30.14H19.7002V30.13Z" fill="#535766"/>
<path d="M17.68 13.43H5.25C5.01 13.43 4.76 13.53 4.59 13.7L0.29 17.84C0.11 18.02 0 18.26 0 18.52V35.88C0 36.41 0.43 36.84 0.96 36.84H9.96H13.03H17.68C18.21 36.84 18.64 36.41 18.64 35.88V14.38C18.64 13.86 18.21 13.43 17.68 13.43ZM9.68 21.11H12.4V25.75H9.68V21.11ZM6.58 21.11H8.96V25.75H6.58V21.11ZM3.25 22.12C3.25 21.56 3.71 21.11 4.26 21.11H5.86V25.75H3.25V22.12ZM5.87 35.5H4.27C3.71 35.5 3.26 35.04 3.26 34.49V30.44H5.87V35.5ZM8.96 35.5H6.58V30.44H8.96V35.5ZM12.4 35.5H9.68V30.44H12.4V35.5ZM15.38 34.49C15.38 35.05 14.92 35.5 14.37 35.5H13.11V30.44V30.08V29.72H3.25V26.45H15.38V34.49ZM15.38 25.75H13.11V21.11H14.37C14.93 21.11 15.38 21.57 15.38 22.12V25.75Z" fill="#535766"/>
<path d="M26.3899 23.41H31.0499C31.5799 23.41 32.0099 22.98 32.0099 22.45V0.95C32.0099 0.42 31.5799 0 31.0499 0H18.6199C18.3699 0 18.1299 0.1 17.9599 0.27L13.6599 4.41C13.4699 4.59 13.3599 4.84 13.3599 5.1V6.25C13.3599 6.25 24.5699 6.25 24.7999 6.25C25.1699 6.25 25.7599 6.52 25.7699 7.24C25.7699 8.08 25.7599 23.42 25.7599 23.42H26.3899V23.41Z" fill="#535766"/>
</svg>
