<svg width="147" height="25" viewBox="0 0 147 25" fill="none" xmlns="http://www.w3.org/2000/svg">
<path d="M0 24.4084C0 24.4084 5.38168 2.38548 5.55344 1.92746C5.80153 1.20227 6.56489 0.038147 8.20611 0.038147C9.82824 0.0572309 10.7252 1.73662 11.145 2.55723C11.5649 3.35876 17.7863 15.5534 17.7863 15.5534L14.9809 21.0496L8.62595 9.04578L5.4771 24.4084H0Z" fill="#F5F4F2"/>
<path d="M16.4886 22.6336L27.1183 1.94656C27.1183 1.94656 28.2825 0 29.6374 0C31.3931 0 32.2137 1.39313 32.5382 2.40458C32.0611 3.5687 21.6031 23.645 21.6031 23.645C21.6031 23.645 20.7252 24.8092 19.3512 24.8092C17.9771 24.8092 16.7176 23.3969 16.4886 22.6336Z" fill="#F5F4F2"/>
<path d="M33.8932 4.71375L30.5725 11.1069L33.397 24.4657H38.6641L33.8932 4.71375Z" fill="#F5F4F2"/>
<path d="M57.2138 7.44275L46.5077 24.8092H40.2863L54.0649 2.0229C54.0649 2.0229 55.4771 0 57.3664 0C59.2367 0 60.229 1.58397 60.5153 2.0229C60.8015 2.46183 74.2748 24.8092 74.2748 24.8092H67.7672L63.6832 18.1489L53.2443 18.1679L56.3741 13.0916H60.7252L57.2138 7.44275Z" fill="#F5F4F2"/>
<path d="M74.2175 0H81.1832L88.7595 7.70992L85.2671 11.355L74.2175 0Z" fill="#F5F4F2"/>
<path d="M99.0458 0.0188904L75.0954 24.7708L82.3091 24.809L90.6107 16.3548L98.7977 24.809H106.05L93.9885 12.4426L106.05 0.0188904H99.0458Z" fill="#F5F4F2"/>
<path d="M106.336 0.190857L119.275 20.9542L122.29 16.0687L112.748 0.190857H106.336Z" fill="#F5F4F2"/>
<path d="M134.332 0.190857H140.592L125.897 23.6641C125.897 23.6641 125.076 25 123.779 25C123.779 25 122.882 25 122.29 24.3512C121.794 23.8359 120.859 22.6909 120.859 22.6909L134.332 0.190857Z" fill="#F5F4F2"/>
<path d="M141.927 0H146.947L146.985 24.8092H141.927V0Z" fill="#F5F4F2"/>
</svg>
