<svg id="Слой_1" data-name="Слой 1" xmlns="http://www.w3.org/2000/svg" viewBox="0 0 640 480"><defs><style>.cls-1{fill:none;stroke:#1b83b8;stroke-linecap:round;stroke-linejoin:round;stroke-width:9px}.cls-2{fill:#1b83b8}</style></defs><path class="cls-1" d="M508.55 170.26V366.8L325 420.18l-5 1.46-5-1.46-183.55-53.38V170.26l10 2.64v186.39L315 409.77V173.33l4.85-1.36 5.15 1.43v236.37l173.55-50.48V172.9l10-2.64zM167.59 134l-17.71-5-86.56-24.09L150 81.84l88.7-23.48 100 27.9zm-66.21-28.84 51.19 14.25 15 4.21 133.88-37.37-62.82-17.53-86.12 22.79z"/><path class="cls-1" d="m401.3 199.08-86.25-24v-7.7l157.35-43.8 17.69 4.84 86.85 24.24L490 175.6zm-62.79-27.84 62.86 17.48 86.12-22.78 51.29-13.54-51.36-14.33-15-4.11z"/><path class="cls-1" d="M320.05 176.38 149 128.78l171.05-47.72 171 47.72zm-133.82-47.61L320.05 166l133.73-37.23-133.73-37.32z"/><path class="cls-1" d="M238.7 199.09 63.06 152.67l86.83-24.23 17.71-4.85 171.08 47.59zM101.22 152.4l51.29 13.53 86.12 22.79 62.8-17.53L167.58 134l-15 4.12zM472.41 134 315.05 90.05v-7.7l86.25-24 88.75 23.48 86.63 23.07zM338.49 86.21l133.91 37.37 15-4.21 51.2-14.25-51.12-13.62-86.11-22.78z"/><path class="cls-2" d="M508.55 170.26V366.8L325 420.18l-5 1.46-5-1.46-183.55-53.38V170.26l10 2.64v186.39L315 409.77V173.33l4.85-1.36 5.15 1.43v236.37l173.55-50.48V172.9l10-2.64zM167.59 134l-17.71-5-86.56-24.09L150 81.84l88.7-23.48 100 27.9zm-66.21-28.84 51.19 14.25 15 4.21 133.88-37.37-62.82-17.53-86.12 22.79z"/><path class="cls-2" d="m401.3 199.08-86.25-24v-7.7l157.35-43.8 17.69 4.84 86.85 24.24L490 175.6zm-62.79-27.84 62.86 17.48 86.12-22.78 51.29-13.54-51.36-14.33-15-4.11z"/><path class="cls-2" d="M320.05 176.38 149 128.78l171.05-47.72 171 47.72zm-133.82-47.61L320.05 166l133.73-37.23-133.73-37.32z"/><path class="cls-2" d="M238.7 199.09 63.06 152.67l86.83-24.23 17.71-4.85 171.08 47.59zM101.22 152.4l51.29 13.53 86.12 22.79 62.8-17.53L167.58 134l-15 4.12zM472.41 134 315.05 90.05v-7.7l86.25-24 88.75 23.48 86.63 23.07zM338.49 86.21l133.91 37.37 15-4.21 51.2-14.25-51.12-13.62-86.11-22.78z"/></svg>