<svg id="Слой_1" data-name="Слой 1" version="1.1" width="446.581" height="414.792" xmlns="http://www.w3.org/2000/svg"><defs id="defs134"><style id="style132">.cls-1{fill:#1b83b8}</style></defs><path class="cls-1" d="M366.17 110.942a120.57 120.57 0 0 0-226.27-47.67 55.79 55.79 0 0 0-33.35-.21 56.61 56.61 0 0 0-23.11 13.9 55.71 55.71 0 0 0-16.31 35.24 82.75 82.75 0 0 0-43.39 22.58A81.33 81.33 0 0 0 0 192.502c0 45.07 36.6 81.77 81.56 81.77h110.83v-19.45H81.56a62.33 62.33 0 0 1-44-106.34 61.38 61.38 0 0 1 35.66-17.46 15.2 15.2 0 0 0 13.17-15 36.71 36.71 0 0 1 10.77-25.31 36.39 36.39 0 0 1 25.72-10.66 38.2 38.2 0 0 1 13.59 2.51 15.12 15.12 0 0 0 19.12-7.16 101 101 0 0 1 191.34 40.47 15.05 15.05 0 0 0 14.95 14.43c35.45 0 65.35 28.54 65.35 62.42v1.57a62.75 62.75 0 0 1-18.19 42.24 62 62 0 0 1-44.12 18.3H255.13v19.45h109.79a81.62 81.62 0 0 0 81.66-79.68v-1.88c0-42.98-36.39-79.58-80.41-81.78z" id="path136"/><path class="cls-1" id="polygon138" transform="translate(-96.71 -32.598)" d="m320.47 447.39-10.46-10.45-63.57-63.47 14.85-14.85 48.72 48.73V175.54h20.92v231.81l48.62-48.73 14.84 14.85-63.46 63.47z"/></svg>