<svg width="90" height="90" viewBox="0 0 90 90" fill="none" xmlns="http://www.w3.org/2000/svg">
<circle cx="45" cy="45" r="42.5" fill="white" stroke="#0096D5" stroke-width="5"/>
<path d="M11.0402 49.9999C12.5202 48.6799 15.5101 47.4799 19.5901 46.5099C19.3301 46.3899 19.0702 46.2699 18.8202 46.1499C14.7202 47.1699 11.7002 48.4199 10.1602 49.7999L11.0402 49.9999Z" fill="#009FE3" stroke="#009FE3" stroke-miterlimit="10" stroke-linecap="round" stroke-linejoin="round"/>
<path d="M12.42 55.4597L13.11 55.1198C11.12 54.1298 10 53.0397 10 51.8997C10 51.6797 10.05 51.4597 10.13 51.2397H9.12001C9.05001 51.4597 9 51.6697 9 51.8997C9 53.1697 10.22 54.3697 12.42 55.4597Z" fill="#009FE3" stroke="#009FE3" stroke-miterlimit="10" stroke-linecap="round" stroke-linejoin="round"/>
<path d="M22.4999 57.9101C19.8199 57.4001 17.4699 56.8001 15.5699 56.1401L15.1299 56.5801C17.0699 57.2501 19.4399 57.8601 22.1099 58.3801L22.4999 57.9101Z" fill="#009FE3" stroke="#009FE3" stroke-miterlimit="10" stroke-linecap="round" stroke-linejoin="round"/>
<path d="M25.4102 58.4199V58.9599C28.0502 59.3699 30.9201 59.7099 33.9801 59.9599L34.1102 59.4299C30.9902 59.1799 28.0702 58.8299 25.4102 58.4199Z" fill="#009FE3" stroke="#009FE3" stroke-miterlimit="10" stroke-linecap="round" stroke-linejoin="round"/>
<path d="M69.6197 45.9302C69.4797 46.0802 69.3297 46.2302 69.1697 46.3702C75.4497 47.8102 79.3297 49.7502 79.3297 51.8902C79.3297 55.6202 67.5997 58.7602 51.7697 59.6502L51.6797 60.2002C68.1097 59.2802 80.3297 55.9002 80.3297 51.8902C80.3297 49.5802 76.2397 47.4702 69.6197 45.9302Z" fill="#009FE3" stroke="#009FE3" stroke-miterlimit="10" stroke-linecap="round" stroke-linejoin="round"/>
<path d="M66.7 61.7504C66.67 61.7504 66.64 61.7504 66.61 61.7504L51.59 60.2504C51.39 60.2304 51.23 60.1404 51.19 60.0304C51.15 59.9204 51.24 59.8104 51.42 59.7504L63.34 55.6803C63.58 55.6003 63.88 55.6403 64.03 55.7703C64.18 55.9003 64.1001 56.0703 63.8701 56.1503L53.05 59.8504L66.7901 61.2204C67.0601 61.2504 67.24 61.3904 67.19 61.5404C67.15 61.6604 66.94 61.7504 66.7 61.7504Z" fill="#009FE3" stroke="#009FE3" stroke-miterlimit="10" stroke-linecap="round" stroke-linejoin="round"/>
<path d="M30.743 44.7494C29.6667 44.7494 28.6123 44.5967 27.5796 44.2913C26.5615 43.9713 25.7034 43.5349 25.0052 42.9823L26.227 40.7788C26.7796 41.2296 27.4487 41.5933 28.2341 41.8696C29.0195 42.1459 29.8413 42.2841 30.6994 42.2841C31.7175 42.2841 32.5102 42.0805 33.0774 41.6732C33.6447 41.2515 33.9283 40.6842 33.9283 39.9715C33.9283 39.2734 33.6665 38.7207 33.1429 38.3135C32.6193 37.9062 31.7757 37.7026 30.6121 37.7026H29.2159V35.7609L33.5792 30.5685L33.9501 31.6375H25.747V29.2595H36.1536V31.1576L31.7902 36.3499L30.3067 35.4773H31.1576C33.0338 35.4773 34.4373 35.8991 35.3682 36.7427C36.3136 37.5717 36.7863 38.6407 36.7863 39.9497C36.7863 40.8078 36.5681 41.6005 36.1318 42.3278C35.6954 43.055 35.0264 43.644 34.1246 44.0949C33.2374 44.5312 32.1102 44.7494 30.743 44.7494ZM45.2519 44.7494C43.8702 44.7494 42.6848 44.4585 41.6957 43.8767C40.7067 43.2804 39.9504 42.4223 39.4268 41.3024C38.9032 40.1824 38.6414 38.8007 38.6414 37.1572C38.6414 35.4118 38.9541 33.9356 39.5795 32.7284C40.2195 31.5212 41.0994 30.6049 42.2194 29.9794C43.3538 29.354 44.6556 29.0413 46.1246 29.0413C46.8954 29.0413 47.6299 29.1213 48.3281 29.2813C49.0407 29.4413 49.6443 29.6886 50.1389 30.0231L49.0916 32.1611C48.6699 31.8848 48.2117 31.6957 47.7172 31.5939C47.2372 31.4775 46.7282 31.4194 46.19 31.4194C44.7501 31.4194 43.6084 31.863 42.7648 32.7502C41.9212 33.6374 41.4994 34.9464 41.4994 36.6772C41.4994 36.9535 41.5067 37.2808 41.5212 37.659C41.5358 38.0226 41.5867 38.3935 41.6739 38.7716L40.8013 37.8117C41.0631 37.2153 41.4194 36.7208 41.8703 36.3281C42.3357 35.9209 42.8811 35.6155 43.5065 35.4118C44.1465 35.2082 44.8374 35.1064 45.5791 35.1064C46.5827 35.1064 47.4772 35.3027 48.2626 35.6954C49.048 36.0736 49.6734 36.619 50.1389 37.3317C50.6043 38.0298 50.837 38.8516 50.837 39.797C50.837 40.8006 50.5897 41.6732 50.0952 42.415C49.6007 43.1568 48.9317 43.7313 48.0881 44.1385C47.2445 44.5458 46.2991 44.7494 45.2519 44.7494ZM45.0992 42.5241C45.681 42.5241 46.1973 42.4223 46.6482 42.2187C47.099 42.0005 47.4481 41.6951 47.6954 41.3024C47.9572 40.9097 48.0881 40.4515 48.0881 39.9279C48.0881 39.128 47.8117 38.4953 47.259 38.0298C46.7063 37.5644 45.9646 37.3317 45.0337 37.3317C44.4228 37.3317 43.8847 37.4481 43.4193 37.6808C42.9684 37.8989 42.6048 38.2044 42.3284 38.5971C42.0666 38.9898 41.9357 39.4407 41.9357 39.9497C41.9357 40.4151 42.0594 40.8442 42.3066 41.2369C42.5539 41.6296 42.9102 41.9423 43.3756 42.175C43.8556 42.4077 44.4301 42.5241 45.0992 42.5241ZM58.69 44.7494C57.4828 44.7494 56.392 44.444 55.4175 43.8331C54.4576 43.2222 53.7012 42.335 53.1485 41.1715C52.5959 39.9934 52.3195 38.568 52.3195 36.8954C52.3195 35.2227 52.5959 33.8047 53.1485 32.6411C53.7012 31.463 54.4576 30.5685 55.4175 29.9576C56.392 29.3468 57.4828 29.0413 58.69 29.0413C59.9118 29.0413 61.0026 29.3468 61.9625 29.9576C62.9225 30.5685 63.6788 31.463 64.2315 32.6411C64.7987 33.8047 65.0823 35.2227 65.0823 36.8954C65.0823 38.568 64.7987 39.9934 64.2315 41.1715C63.6788 42.335 62.9225 43.2222 61.9625 43.8331C61.0026 44.444 59.9118 44.7494 58.69 44.7494ZM58.69 42.2841C59.4027 42.2841 60.0208 42.095 60.5444 41.7169C61.068 41.3242 61.4753 40.7279 61.7662 39.9279C62.0716 39.128 62.2243 38.1171 62.2243 36.8954C62.2243 35.6591 62.0716 34.6482 61.7662 33.8628C61.4753 33.0629 61.068 32.4738 60.5444 32.0957C60.0208 31.703 59.4027 31.5066 58.69 31.5066C58.0064 31.5066 57.3955 31.703 56.8574 32.0957C56.3338 32.4738 55.9193 33.0629 55.6138 33.8628C55.323 34.6482 55.1775 35.6591 55.1775 36.8954C55.1775 38.1171 55.323 39.128 55.6138 39.9279C55.9193 40.7279 56.3338 41.3242 56.8574 41.7169C57.3955 42.095 58.0064 42.2841 58.69 42.2841Z" fill="#009FE3"/>
<path d="M69.563 33.504C68.9763 33.504 68.4556 33.3757 68.001 33.119C67.5463 32.8623 67.187 32.5103 66.923 32.063C66.659 31.6083 66.527 31.095 66.527 30.523C66.527 29.9437 66.659 29.4303 66.923 28.983C67.187 28.5357 67.5463 28.1873 68.001 27.938C68.4556 27.6813 68.9763 27.553 69.563 27.553C70.1423 27.553 70.6593 27.6813 71.114 27.938C71.576 28.1873 71.9353 28.5357 72.192 28.983C72.456 29.423 72.588 29.9363 72.588 30.523C72.588 31.1023 72.456 31.6157 72.192 32.063C71.9353 32.5103 71.576 32.8623 71.114 33.119C70.6593 33.3757 70.1423 33.504 69.563 33.504ZM69.563 32.58C69.937 32.58 70.2706 32.4957 70.564 32.327C70.8646 32.1583 71.0993 31.92 71.268 31.612C71.4366 31.2967 71.521 30.9337 71.521 30.523C71.521 30.105 71.4366 29.7457 71.268 29.445C71.0993 29.137 70.8646 28.8987 70.564 28.73C70.2706 28.5613 69.937 28.477 69.563 28.477C69.189 28.477 68.8553 28.5613 68.562 28.73C68.2686 28.8987 68.034 29.137 67.858 29.445C67.682 29.7457 67.594 30.105 67.594 30.523C67.594 30.9337 67.682 31.2967 67.858 31.612C68.034 31.92 68.2686 32.1583 68.562 32.327C68.8553 32.4957 69.189 32.58 69.563 32.58Z" fill="#009FE3"/>
</svg>
