<!-- Generated by IcoMoon.io -->
<svg version="1.1" xmlns="http://www.w3.org/2000/svg" width="32" height="32" viewBox="0 0 32 32">
<title>icon-logout</title>
<path d="M17.339 28.031h-16.252c-0.6 0-1.086-0.486-1.086-1.086v0-21.89c0-0.6 0.486-1.086 1.086-1.086v0h16.252c0.6 0 1.086 0.486 1.086 1.086v0 5.472c0 0.6-0.486 1.086-1.086 1.086s-1.086-0.486-1.086-1.086v0-4.386h-14.079v19.717h14.079v-4.386c0-0.6 0.486-1.086 1.086-1.086s1.086 0.486 1.086 1.086v0 5.472c0 0.6-0.486 1.086-1.086 1.086v0z"></path>
<path d="M30.167 17.087h-20.955c-0.6 0-1.086-0.486-1.086-1.086s0.486-1.086 1.086-1.086v0h20.955c0.6 0 1.086 0.486 1.086 1.086s-0.486 1.086-1.086 1.086v0z"></path>
<path d="M24.049 22.231v0c-0.139-0.149-0.224-0.349-0.224-0.57 0-0.242 0.103-0.46 0.267-0.613l0.001-0 5.432-5.046-5.432-5.047c-0.164-0.153-0.266-0.371-0.266-0.613 0-0.221 0.085-0.421 0.225-0.571l-0 0.001c0.153-0.164 0.371-0.266 0.613-0.266 0.221 0 0.421 0.085 0.571 0.225l-0.001-0.001 6.542 5.774c0.138 0.123 0.225 0.301 0.225 0.499s-0.087 0.377-0.224 0.499l-0.001 0.001-6.539 5.769c-0.15 0.139-0.352 0.224-0.573 0.224-0.241 0-0.459-0.101-0.613-0.264l-0-0z"></path>
</svg>
