<!-- Generated by IcoMoon.io -->
<svg version="1.1" xmlns="http://www.w3.org/2000/svg" width="32" height="32" viewBox="0 0 32 32">
<title>icon-profile</title>
<path d="M16 22.498c-2.022-0.017-3.855-0.807-5.222-2.090l0.004 0.004c-1.601-1.485-2.649-3.546-2.815-5.852l-0.002-0.028-0.331-4.269c-0.221-2.875 0.703-5.664 2.538-7.652 1.557-1.683 3.627-2.611 5.826-2.611 2.318 0 4.463 1.014 6.046 2.856 1.519 1.766 2.355 4.1 2.355 6.567 0 0.283-0.011 0.565-0.033 0.841l-0.331 4.268c-0.168 2.334-1.217 4.396-2.812 5.876l-0.006 0.005c-1.363 1.277-3.197 2.067-5.214 2.085l-0.004 0zM16 1.991c-1.639 0-3.191 0.702-4.368 1.974-1.465 1.582-2.2 3.823-2.019 6.147l0.331 4.269c0.126 1.813 0.937 3.415 2.173 4.566l0.004 0.004c1.004 0.965 2.371 1.56 3.877 1.56s2.872-0.594 3.878-1.561l-0.002 0.002c1.241-1.155 2.053-2.757 2.177-4.549l0.001-0.022 0.331-4.269c0.018-0.226 0.026-0.456 0.026-0.685 0.003-4.1-2.874-7.436-6.411-7.436z"></path>
<path d="M24.104 32h-16.207c-4.124 0-7.48-2.72-7.48-6.070 0-1.324 0.518-2.591 1.498-3.65 0.936-1.011 2.218-1.747 3.71-2.131l5.582-1.435c0.074-0.020 0.159-0.031 0.246-0.031 0.259 0 0.496 0.099 0.673 0.262l-0.001-0.001c1.004 0.965 2.371 1.559 3.876 1.559s2.872-0.594 3.878-1.561l-0.002 0.002c0.176-0.162 0.412-0.261 0.671-0.261 0.088 0 0.173 0.011 0.254 0.033l-0.007-0.002 5.58 1.435c3.116 0.8 5.208 3.123 5.208 5.781 0 1.668-0.81 3.219-2.281 4.369-1.399 1.099-3.246 1.7-5.198 1.7zM11.2 20.775l-5.077 1.304c-1.121 0.288-2.072 0.827-2.747 1.557-0.633 0.684-0.969 1.48-0.969 2.3 0 2.249 2.464 4.083 5.494 4.083h16.203c1.511 0 2.922-0.454 3.973-1.276 0.98-0.765 1.519-1.76 1.519-2.803 0-1.736-1.493-3.287-3.715-3.857l-5.077-1.304c-1.294 1.072-2.972 1.723-4.801 1.723s-3.507-0.651-4.813-1.733l0.013 0.010z"></path>
</svg>
