<svg width="33" height="33" viewBox="0 0 33 33" fill="none" xmlns="http://www.w3.org/2000/svg">
<path d="M32.4942 29.6876L25.0133 22.2066C26.8144 19.809 27.7866 16.8905 27.7834 13.8917C27.7834 6.23186 21.5515 0 13.8917 0C6.23186 0 0 6.23186 0 13.8917C0 21.5515 6.23186 27.7834 13.8917 27.7834C16.8905 27.7866 19.809 26.8144 22.2066 25.0133L29.6876 32.4942C30.0663 32.8327 30.5602 33.0134 31.0679 32.9992C31.5756 32.985 32.0587 32.777 32.4178 32.4178C32.777 32.0587 32.985 31.5756 32.9992 31.0679C33.0134 30.5602 32.8327 30.0663 32.4942 29.6876ZM3.96905 13.8917C3.96905 11.9292 4.551 10.0107 5.64132 8.37896C6.73163 6.7472 8.28133 5.47539 10.0945 4.72437C11.9076 3.97335 13.9027 3.77685 15.8275 4.15971C17.7523 4.54258 19.5203 5.48762 20.908 6.87532C22.2957 8.26303 23.2408 10.0311 23.6236 11.9559C24.0065 13.8807 23.81 15.8758 23.059 17.6889C22.308 19.502 21.0362 21.0517 19.4044 22.142C17.7726 23.2324 15.8542 23.8143 13.8917 23.8143C11.261 23.8111 8.73898 22.7647 6.87881 20.9046C5.01864 19.0444 3.97221 16.5224 3.96905 13.8917Z" fill="#009FE3"/>
</svg>
