<svg id="Слой_1" data-name="Слой 1" version="1.1" width="513.88" height="363.29" xmlns="http://www.w3.org/2000/svg"><defs id="defs262"><style id="style260">.cls-1{fill:#1b83b8}</style></defs><path class="cls-1" id="polygon264" transform="translate(-63.06 -64.94)" d="m325 426.77-5 1.46-5-1.46-183.55-53.38V176.85l10 2.64v186.39L315 416.36V179.92l4.85-1.36 5.15 1.43v236.37l173.55-50.48V179.49l10-2.64v196.54z"/><path class="cls-1" d="m104.53 75.61-17.71-5L.26 46.51l86.68-23.02L175.64 0l100 27.9zM38.32 46.77l51.19 14.29 15 4.21L238.39 27.9l-62.82-17.54-86.12 22.79z" id="path266"/><path class="cls-1" d="m338.24 140.73-86.25-24v-7.67l157.35-43.8 17.69 4.8 86.85 24.23-86.94 22.96zm-62.79-27.85 62.86 17.49 86.12-22.79 51.29-13.52-51.36-14.32-15-4.11z" id="path268"/><path class="cls-1" d="M256.99 118.06 85.94 70.42l171.05-47.71 171 47.71zM123.17 70.41l133.82 37.23 133.74-37.23-133.74-37.35z" id="path270"/><path class="cls-1" d="M175.64 140.73 0 94.31l86.83-24.25 17.71-4.85 171.08 47.59zM38.17 94.06l51.28 13.54 86.12 22.79 62.8-17.53-133.85-37.25-15 4.11z" id="path272"/><path class="cls-1" d="M409.35 75.61 251.99 31.7V24l86.25-24 88.75 23.48 86.63 23.07zM275.43 27.86l133.91 37.37 15-4.21 51.2-14.25-51.12-13.62-86.11-22.79z" id="path274"/></svg>