<!-- Generated by IcoMoon.io -->
<svg version="1.1" xmlns="http://www.w3.org/2000/svg" width="32" height="32" viewBox="0 0 32 32">
<title>icon-headphones</title>
<path d="M29.255 30.264h-2.426c-0.54 0-0.978-0.438-0.978-0.978s0.438-0.978 0.978-0.978h2.433c0.54 0 0.978 0.438 0.978 0.978s-0.438 0.978-0.978 0.978v0z"></path>
<path d="M5.174 30.264h-2.437c-0.54 0-0.978-0.438-0.978-0.978s0.438-0.978 0.978-0.978h2.437c0.54 0 0.978 0.438 0.978 0.978s-0.438 0.978-0.978 0.978v0z"></path>
<path d="M31.014 28.505c-0.54 0-0.978-0.438-0.978-0.978v0-10.564c-0.008-7.325-5.944-13.261-13.269-13.27h-1.537c-7.326 0.008-13.263 5.944-13.273 13.269v10.565c0 0.54-0.438 0.978-0.978 0.978s-0.978-0.438-0.978-0.978v-10.564c0.012-8.405 6.824-15.216 15.229-15.226h1.537c8.405 0.010 15.216 6.821 15.226 15.225v10.565c0 0.54-0.438 0.978-0.978 0.978v0z"></path>
<path d="M29.255 30.264h-2.426c-2.875-0.004-5.206-2.334-5.209-5.209v-3.423c0.002-1.981 1.607-3.586 3.588-3.589h5.814c0.54 0 0.978 0.438 0.978 0.978v0 8.498c0 0.001 0 0.002 0 0.004 0 1.514-1.227 2.741-2.741 2.741-0.001 0-0.002 0-0.004 0h0zM25.201 20.021c-0.901 0.002-1.63 0.731-1.632 1.632v3.416c0.010 1.791 1.464 3.239 3.256 3.239 0.001 0 0.002 0 0.004 0h2.433c0.431 0 0.78-0.349 0.78-0.78v0-7.52z"></path>
<path d="M5.174 30.264h-2.433c-1.512-0.002-2.737-1.226-2.741-2.737v-8.498c0-0.54 0.438-0.978 0.978-0.978h5.817c1.979 0.002 3.582 1.603 3.589 3.581v3.416c0 0.001 0 0.002 0 0.004 0 2.878-2.332 5.211-5.209 5.213h-0zM1.957 20.021v7.52c0.002 0.432 0.352 0.78 0.784 0.78 0 0 0 0 0 0h2.433c1.796-0.002 3.251-1.457 3.253-3.253v-3.437c0-0.901-0.731-1.632-1.632-1.632v0z"></path>
</svg>
