<svg width="43" height="24" viewBox="0 0 43 24" fill="none" xmlns="http://www.w3.org/2000/svg">
<path fill-rule="evenodd" clip-rule="evenodd" d="M41.9878 1.66667C42.3067 0.726667 41.9878 0.0433331 40.5768 0.0433331H35.8853C34.7019 0.0433331 34.1555 0.641666 33.8366 1.28167C33.8366 1.28167 31.4232 6.74833 28.0531 10.2925C26.9601 11.3175 26.4594 11.6592 25.8672 11.6592C25.5483 11.6592 25.138 11.3175 25.138 10.3783V1.6225C25.138 0.5125 24.7743 0 23.7719 0H16.3938C15.6646 0 15.2095 0.5125 15.2095 1.025C15.2095 2.0925 16.8945 2.34917 17.0764 5.33833V11.8333C17.0764 13.2425 16.8076 13.5 16.211 13.5C14.6173 13.5 10.7464 7.99083 8.42443 1.71333C7.97293 0.47 7.51426 0 6.32997 0H1.59369C0.227542 0 0 0.5975 0 1.23833C0 2.39167 1.59369 8.19917 7.42289 15.8858C11.2938 21.1358 16.8041 23.9575 21.7679 23.9575C24.7743 23.9575 25.138 23.3167 25.138 22.2492V18.2775C25.138 16.9967 25.4112 16.7833 26.368 16.7833C27.0506 16.7833 28.2806 17.1242 31.0586 19.6442C34.246 22.6333 34.7924 24 36.5689 24H41.2595C42.6256 24 43.2634 23.3592 42.8988 22.1208C42.4894 20.8825 40.9405 19.0892 38.9366 16.9542C37.8436 15.7592 36.2043 14.435 35.7035 13.7942C35.0209 12.94 35.2027 12.5983 35.7035 11.83C35.6578 11.83 41.3965 4.22833 41.9878 1.66333" fill="white"/>
</svg>
