<svg width="0" height="0" class="hidden">
    <symbol id="icon-search" xmlns="http://www.w3.org/2000/svg" xmlns:xlink="http://www.w3.org/1999/xlink" viewBox="0 0 33 33">
        <path d="M32.4942 29.6876L25.0133 22.2066C26.8144 19.809 27.7866 16.8905 27.7834 13.8917C27.7834 6.23186 21.5515 0 13.8917 0C6.23186 0 0 6.23186 0 13.8917C0 21.5515 6.23186 27.7834 13.8917 27.7834C16.8905 27.7866 19.809 26.8144 22.2066 25.0133L29.6876 32.4942C30.0663 32.8327 30.5602 33.0134 31.0679 32.9992C31.5756 32.985 32.0587 32.777 32.4178 32.4178C32.777 32.0587 32.985 31.5756 32.9992 31.0679C33.0134 30.5602 32.8327 30.0663 32.4942 29.6876ZM3.96905 13.8917C3.96905 11.9292 4.551 10.0107 5.64132 8.37896C6.73163 6.7472 8.28133 5.47539 10.0945 4.72437C11.9076 3.97335 13.9027 3.77685 15.8275 4.15971C17.7523 4.54258 19.5203 5.48762 20.908 6.87532C22.2957 8.26303 23.2408 10.0311 23.6236 11.9559C24.0065 13.8807 23.81 15.8758 23.059 17.6889C22.308 19.502 21.0362 21.0517 19.4044 22.142C17.7726 23.2324 15.8542 23.8143 13.8917 23.8143C11.261 23.8111 8.73898 22.7647 6.87881 20.9046C5.01864 19.0444 3.97221 16.5224 3.96905 13.8917Z" fill="currentColor"/>
    </symbol>

    <symbol id="icon-tune" xmlns="http://www.w3.org/2000/svg" xmlns:xlink="http://www.w3.org/1999/xlink" viewBox="0 -960 960 960">
        <path fill="currentColor" d="M488-89q-23 0-39.5-15.812Q432-120.625 432-144v-161q0-23.375 16.5-39.188Q465-360 488-360t39 15.812q16 15.813 16 39.188v25h265q23.375 0 39.188 15.812Q863-248.375 863-225q0 23-15.812 39.5Q831.375-169 808-169H543v25q0 23.375-15.812 39.188Q511.375-89 488-89Zm-336-80q-23.375 0-39.188-16.5Q97-202 97-225t15.812-39q15.813-16 39.188-16h161q23.375 0 39.188 15.812Q368-248.375 368-225q0 23-15.812 39.5Q336.375-169 313-169H152Zm161-176q-23 0-39.5-16.5T257-401v-24H152q-23.375 0-39.188-15.812Q97-456.625 97-480t15.812-39.188Q128.625-535 152-535h105v-25q0-23.375 16.5-39.188Q290-615 313-615t39 15.812q16 15.813 16 39.188v160q0 23.375-15.812 39.188Q336.375-345 313-345Zm174-80q-23.375 0-39.188-15.812Q432-456.625 432-480t15.812-39.188Q463.625-535 487-535h321q23.375 0 39.188 15.812Q863-503.375 863-480t-15.812 39.188Q831.375-425 808-425H487Zm161-175q-23 0-39.5-15.812Q592-631.625 592-655v-161q0-23.375 16.5-39.188Q625-871 648-871t39 15.812q16 15.813 16 39.188v25h105q23.375 0 39.188 15.812Q863-759.375 863-736q0 23-15.812 39.5Q831.375-680 808-680H703v25q0 23.375-15.812 39.188Q671.375-600 648-600Zm-496-80q-23.375 0-39.188-16.5Q97-713 97-736t15.812-39q15.813-16 39.188-16h321q23.375 0 39.188 15.812Q528-759.375 528-736q0 23-15.812 39.5Q496.375-680 473-680H152Z"/>
    </symbol>

    <symbol id="icon-close" xmlns="http://www.w3.org/2000/svg" xmlns:xlink="http://www.w3.org/1999/xlink" viewBox="0 -960 960 960" >
        <path fill="currentColor" d="M480-392 300-212q-18 18-44 18t-44-18q-18-18-18-44t18-44l180-180-180-180q-18-18-18-44t18-44q18-18 44-18t44 18l180 180 180-180q18-18 44-18t44 18q18 18 18 44t-18 44L568-480l180 180q18 18 18 44t-18 44q-18 18-44 18t-44-18L480-392Z"/>
    </symbol>

    <symbol id="icon-email" xmlns="http://www.w3.org/2000/svg" xmlns:xlink="http://www.w3.org/1999/xlink" viewBox="0 0 37 29">
        <path d="M36.4166 8.42275V23.0105C36.4166 26.1155 33.9863 28.6528 30.9241 28.8243L30.5937 28.8334H6.40623C3.30122 28.8334 0.763824 26.403 0.592522 23.3409L0.583313 23.0105V8.42275L17.8765 17.4821C18.2671 17.6866 18.7329 17.6866 19.1235 17.4821L36.4166 8.42275ZM6.40623 0.166748H30.5937C33.6121 0.166748 36.0943 2.4635 36.3876 5.40478L18.5 14.7747L0.61232 5.40478C0.894812 2.57244 3.20689 0.337763 6.07314 0.176118L6.40623 0.166748Z" fill="currentColor"/>
    </symbol>

    <symbol id="icon-vk" xmlns="http://www.w3.org/2000/svg" xmlns:xlink="http://www.w3.org/1999/xlink" viewBox="0 0 43 24">
        <path fill-rule="evenodd" clip-rule="evenodd" d="M41.9878 1.66667C42.3067 0.726667 41.9878 0.0433331 40.5768 0.0433331H35.8853C34.7019 0.0433331 34.1555 0.641666 33.8366 1.28167C33.8366 1.28167 31.4232 6.74833 28.0531 10.2925C26.9601 11.3175 26.4594 11.6592 25.8672 11.6592C25.5483 11.6592 25.138 11.3175 25.138 10.3783V1.6225C25.138 0.5125 24.7743 0 23.7719 0H16.3938C15.6646 0 15.2095 0.5125 15.2095 1.025C15.2095 2.0925 16.8945 2.34917 17.0764 5.33833V11.8333C17.0764 13.2425 16.8076 13.5 16.211 13.5C14.6173 13.5 10.7464 7.99083 8.42443 1.71333C7.97293 0.47 7.51426 0 6.32997 0H1.59369C0.227542 0 0 0.5975 0 1.23833C0 2.39167 1.59369 8.19917 7.42289 15.8858C11.2938 21.1358 16.8041 23.9575 21.7679 23.9575C24.7743 23.9575 25.138 23.3167 25.138 22.2492V18.2775C25.138 16.9967 25.4112 16.7833 26.368 16.7833C27.0506 16.7833 28.2806 17.1242 31.0586 19.6442C34.246 22.6333 34.7924 24 36.5689 24H41.2595C42.6256 24 43.2634 23.3592 42.8988 22.1208C42.4894 20.8825 40.9405 19.0892 38.9366 16.9542C37.8436 15.7592 36.2043 14.435 35.7035 13.7942C35.0209 12.94 35.2027 12.5983 35.7035 11.83C35.6578 11.83 41.3965 4.22833 41.9878 1.66333" fill="currentColor"/>
    </symbol>

    <symbol id="icon-play" xmlns="http://www.w3.org/2000/svg" xmlns:xlink="http://www.w3.org/1999/xlink" viewBox="0 0 85 85">
        <circle cx="42.1875" cy="42.1875" r="39.6875" fill="rgba(255,255,255,.7)" stroke="currentColor" stroke-width="5"/>
        <path d="M66.5625 42.2756L29.0625 63.9263L29.0625 20.625L66.5625 42.2756Z" fill="currentColor"/>
    </symbol>

    <symbol id="icon-check" xmlns="http://www.w3.org/2000/svg" xmlns:xlink="http://www.w3.org/1999/xlink" viewBox="0 0 18 13">
        <path d="M14.7998 0.699984L6.6998 8.79998L3.1998 5.29998C2.4998 4.59998 1.3998 4.59998 0.699805 5.29998C-0.000195324 5.99998 -0.000195324 7.09998 0.699805 7.79998L5.3998 12.5C5.7998 12.8 6.1998 13 6.6998 13C7.1998 13 7.5998 12.8 7.8998 12.5L17.2998 3.09998C17.9998 2.39998 17.9998 1.29998 17.2998 0.599984C16.5998 -0.100016 15.4998 -1.60336e-05 14.7998 0.699984Z" fill="currentColor"/>
    </symbol>
</svg>