<svg id="Слой_1" data-name="Слой 1" xmlns="http://www.w3.org/2000/svg" viewBox="0 0 640 626.19"><defs><style>.cls-1{fill:#a1acaf;}</style></defs><path class="cls-1" d="M556.25,246.38V460.11a45.12,45.12,0,0,1-45.07,45.07H128.82a45.12,45.12,0,0,1-45.07-45.07V246.38a45.12,45.12,0,0,1,45.07-45.07h91.83v14H128.82a31.07,31.07,0,0,0-31.07,31.07V460.11a31.07,31.07,0,0,0,31.07,31.07H511.18a31.07,31.07,0,0,0,31.07-31.07V246.38a31.07,31.07,0,0,0-31.07-31.07H244.65v-11.2a8.65,8.65,0,0,1,.46-2.8H511.18A45.12,45.12,0,0,1,556.25,246.38Z"/><path class="cls-1" d="M490.2,142.65a26,26,0,0,0-30-21.27L233,160a31.52,31.52,0,0,0-26.31,31.16v24.15h14V191.16a17.56,17.56,0,0,1,14.66-17.36l227.25-38.62a11.64,11.64,0,0,1,2-.17,12,12,0,0,1,2,23.83L252.1,195.29a8.91,8.91,0,0,0-7,6,8.65,8.65,0,0,0-.46,2.8v11.2h14v-6.93l41.6-7.07,168.68-28.67a26,26,0,0,0,21.27-30Z"/><rect class="cls-1" x="372.86" y="298.12" width="94.36" height="14"/><rect class="cls-1" x="372.86" y="346.24" width="94.36" height="14"/><rect class="cls-1" x="372.86" y="394.37" width="94.36" height="14"/><path class="cls-1" d="M244.38,427.25a74,74,0,1,1,74-74A74.09,74.09,0,0,1,244.38,427.25Zm0-134a60,60,0,1,0,60,60A60.08,60.08,0,0,0,244.38,293.23Z"/></svg>