<svg id="Слой_1" data-name="Слой 1" xmlns="http://www.w3.org/2000/svg" viewBox="0 0 778.67 696.89"><defs><style>.cls-1{fill:#a1acaf;}.cls-2{fill:#fff;}</style></defs><path class="cls-1" d="M535.66,202.12a8.15,8.15,0,0,1,0-11.52L637.93,88.33a8.14,8.14,0,0,1,11.51,11.52L547.17,202.12A8.14,8.14,0,0,1,535.66,202.12Z"/><path class="cls-1" d="M585.69,252.16a8,8,0,0,1-1.46-2,8.13,8.13,0,0,1,3.46-11l110.23-57.39a8.14,8.14,0,1,1,7.52,14.44L595.21,253.62A8.13,8.13,0,0,1,585.69,252.16Z"/><path class="cls-1" d="M485.62,152.09a8.15,8.15,0,0,1-1.47-9.52L541.54,32.34A8.14,8.14,0,0,1,556,39.86L498.6,150.09a8.13,8.13,0,0,1-11,3.46A8,8,0,0,1,485.62,152.09Z"/><path class="cls-2" d="M602.27,283,454.79,135.51a22.12,22.12,0,0,0-31.24,0l-32.34,32.33a104.68,104.68,0,0,0-25.84,42.81l-21.81,70.21a61.19,61.19,0,0,1-15.13,25L86.91,547.41a27.19,27.19,0,0,0,0,38.4L152,650.86a27.18,27.18,0,0,0,38.39,0L431.88,409.35a61.29,61.29,0,0,1,25-15.13l70.21-21.81a104.71,104.71,0,0,0,42.8-25.84l32.34-32.34A22.12,22.12,0,0,0,602.27,283Zm-43.85,52.06a88.41,88.41,0,0,1-36.13,21.81l-70.21,21.81a77.61,77.61,0,0,0-31.71,19.16L178.85,639.35a10.89,10.89,0,0,1-15.37,0l-65-65.05a10.87,10.87,0,0,1,0-15.36L340,317.41a77.72,77.72,0,0,0,19.16-31.71l21.81-70.22a88.37,88.37,0,0,1,21.81-36.12L435.06,147a5.82,5.82,0,0,1,8.21,0L590.75,294.51a5.81,5.81,0,0,1,0,8.2Z"/><path class="cls-1" d="M590.75,302.71l-32.33,32.34a88.41,88.41,0,0,1-36.13,21.81l-70.21,21.81a77.61,77.61,0,0,0-31.71,19.16L178.85,639.35a10.89,10.89,0,0,1-15.37,0l-65-65.05a10.87,10.87,0,0,1,0-15.36L340,317.41a77.72,77.72,0,0,0,19.16-31.71l21.81-70.22a88.37,88.37,0,0,1,21.81-36.12L435.06,147a5.82,5.82,0,0,1,8.21,0L590.75,294.51A5.81,5.81,0,0,1,590.75,302.71Z"/><rect class="cls-2" x="480.39" y="131.01" width="16.29" height="236.46" transform="translate(-33.15 418.45) rotate(-45)"/></svg>