<svg id="Слой_1" data-name="Слой 1" xmlns="http://www.w3.org/2000/svg" viewBox="0 0 640 626.19"><defs><style>.cls-1{fill:#a1acaf;}</style></defs><path class="cls-1" d="M434.49,160.91l13.26,20.84L464.05,170v18.76h21.41l-15.54,19,18.95,14.21-21.22,6.82,5.68,17L455.14,239l-7.58,23.12-14.21-22.17-18,12.88,2.28-18.75H397l14.78-19-19.13-15.35,19.7-5.11L407.39,178l18.95,5.88,8.15-22.93m-2.31-20.39L426,157.9l-5.26,14.78-10.69-3.31-16.06-5,4.76,16.12,2.29,7.75L390.35,191,373,195.55l14,11.22,12.21,9.79-9.32,11.95-11.34,14.54h28.93l-1.05,8.67L404,272l16.63-11.91,10.3-7.37,9.1,14.19,10.22,16,5.91-18,4.65-14.2,9.4,3.53,17.67,6.62-6-17.89-2.81-8.43,12.56-4,16.57-5.33-13.92-10.44-11.43-8.57,9.58-11.68,12.06-14.71H473.05V152.42L458.78,162.7l-8.55,6.17-8.15-12.79-9.9-15.56Z"/><path class="cls-1" d="M371.11,213.07H356.73l9.45,7.59L354.76,235.3h11.42l12.56-16.11ZM563,237l-13.93-10.44-33-24.75,27.26-33.25,12.06-14.71h-55.8v-48.7l-14.27,10.28L458.2,135,435,98.47l-9.9-15.55-6.17,17.37-14.53,40.89-32.26-10-16.06-5,4.76,16.12,7.89,26.74-33.14,8.6-17.36,4.51,8.61,6.9,5.38,4.32,24.55,19.68,9.45,7.59L354.76,235.3l-14.71,18.88-4,5.12-7.35,9.41h52.45l-3.64,30-2.46,20.3,16.63-11.9,30.8-22,25.27,39.43L458,340.49l5.9-18L477.17,282l27.76,10.41,2.34.88,17.67,6.63L519,282l-8.58-25.72-.71-2.12,36.73-11.8ZM500.2,247.75l-1.91.62,12.14,36.47-10.95-4.11-27.94-10.48-16.22,49.43-30.39-47.41-38.49,27.56,4.86-40.12H347.14l.32-.41,18.72-24,12.56-16.11-7.63-6.12-29.92-24-3.37-2.7L380,175.43l-10.53-35.66,40.51,12.56,17.43-49,28.37,44.58,34.84-25.13v40.12h45.79l-33.23,40.52,40.53,30.39Z"/><circle class="cls-1" cx="304" cy="389.28" r="43.71"/><path class="cls-1" d="M304,487.65a98.37,98.37,0,1,1,98.36-98.37A98.48,98.48,0,0,1,304,487.65Zm0-166.73a68.37,68.37,0,1,0,68.36,68.36A68.44,68.44,0,0,0,304,320.92Z"/><path class="cls-1" d="M531,306.17V472.4a70.94,70.94,0,0,1-70.86,70.86H147.87A70.94,70.94,0,0,1,77,472.4V306.17a71,71,0,0,1,70.86-70.87H354.76l-14.71,18.88-4,5.12H147.87A46.93,46.93,0,0,0,101,306.17V472.4a46.92,46.92,0,0,0,46.86,46.86H460.13A46.9,46.9,0,0,0,507,472.4V306.17a47.2,47.2,0,0,0-2.06-13.79l2.34.88,17.67,6.63L519,282l-8.58-25.72A70.64,70.64,0,0,1,531,306.17Z"/><path class="cls-1" d="M356.73,213.07H254.93a25.17,25.17,0,0,0-20.63,10.77l-8,11.46H197.07l17.54-25.18a49.17,49.17,0,0,1,40.32-21.05H326.8l5.38,4.32Z"/></svg>