<svg id="Слой_1" data-name="Слой 1" xmlns="http://www.w3.org/2000/svg" viewBox="0 0 640 626.19"><defs><style>.cls-1{fill:#a1acaf;}</style></defs><rect class="cls-1" x="43.7" y="241.09" width="165.22" height="144"/><polygon class="cls-1" points="296.07 500.29 160.41 379.03 160.41 247.15 296.07 125.89 296.07 500.29"/><path class="cls-1" d="M382.7,251.82a156.74,156.74,0,0,0-24.3-39.74l-27,27a119.34,119.34,0,0,1,0,148l27,27a157.54,157.54,0,0,0,24.3-162.27Z"/><path class="cls-1" d="M444.5,225.71A223.31,223.31,0,0,0,406,164.52L379,191.46a186.45,186.45,0,0,1,0,243.25L406,461.65A224.71,224.71,0,0,0,444.5,225.71Z"/><path class="cls-1" d="M506.3,199.6A289.82,289.82,0,0,0,453.45,117l-26.9,26.91a253.49,253.49,0,0,1,0,338.29l26.91,26.91A291.77,291.77,0,0,0,506.3,199.6Z"/><path class="cls-1" d="M568.11,173.5A356.67,356.67,0,0,0,500.92,69.57L474,96.46a320.58,320.58,0,0,1,0,433.26l26.89,26.89A359,359,0,0,0,568.11,173.5Z"/></svg>