<svg id="Слой_1" data-name="Слой 1" xmlns="http://www.w3.org/2000/svg" viewBox="0 0 640 626.19"><defs><style>.cls-1{fill:#a1acaf;}</style></defs><path class="cls-1" d="M419.05,40a18.19,18.19,0,0,1,18.19,18.19V433.31a18.19,18.19,0,0,1-18.19,18.18H221a18.19,18.19,0,0,1-18.19-18.18V58.15A18.19,18.19,0,0,1,221,40h198.1m0-14H221a32.23,32.23,0,0,0-32.19,32.19V433.31A32.22,32.22,0,0,0,221,465.49h198.1a32.22,32.22,0,0,0,32.19-32.18V58.15A32.23,32.23,0,0,0,419.05,26Z"/><rect class="cls-1" x="151.08" y="238.73" width="337.84" height="14" transform="translate(-45.75 416.04) rotate(-62.49)"/><polygon class="cls-1" points="372.35 90.82 414.74 63.83 416.92 114.04 372.35 90.82"/><polygon class="cls-1" points="223.08 377.42 225.26 427.62 267.65 400.63 223.08 377.42"/><polygon class="cls-1" points="396.19 539.79 396.19 506.57 410.78 506.57 410.78 522.17 404.9 539.79 396.19 539.79"/><polygon class="cls-1" points="417.22 539.79 417.22 506.57 431.81 506.57 431.81 522.17 425.94 539.79 417.22 539.79"/><rect class="cls-1" x="291.79" y="584.69" width="17.68" height="15.54"/><path class="cls-1" d="M340.12,535.43H322.05s-1.09-30.12,32.68-30.12,29,34.68,19,47.09-25.31,30.49-25.31,30.49h38.28v17.34H322.05v-15L357.59,546a24.26,24.26,0,0,0,6.27-16.26h0a10.38,10.38,0,0,0-10.38-10.38h0a13.41,13.41,0,0,0-13.41,13.71Z"/><path class="cls-1" d="M228.09,528H209s.19-24.82,32.4-24.82,40,32.4,16.1,47.18c0,0,15.54,3.6,15.54,24.63s-21.22,25.2-32,25.2-33-6.06-33-26.9h18.38s1.32,11.93,14.11,11.93c10.66,0,18.89-14.34,10.37-23.72a15.47,15.47,0,0,0-11.51-4.89H227.9V543.77h14.78a9.29,9.29,0,0,0,9.29-9.29v-6.15a10.52,10.52,0,0,0-10.52-10.52h-3.31a10.05,10.05,0,0,0-10,10.23Z"/></svg>