<svg id="Слой_1" data-name="Слой 1" xmlns="http://www.w3.org/2000/svg" viewBox="0 0 640 626.19"><defs><style>.cls-1{fill:#a1acaf;}</style></defs><path class="cls-1" d="M419.05,40a18.19,18.19,0,0,1,18.19,18.19V433.31a18.19,18.19,0,0,1-18.19,18.18H221a18.19,18.19,0,0,1-18.19-18.18V58.15A18.19,18.19,0,0,1,221,40h198.1m0-14H221a32.23,32.23,0,0,0-32.19,32.19V433.31A32.22,32.22,0,0,0,221,465.49h198.1a32.22,32.22,0,0,0,32.19-32.18V58.15A32.23,32.23,0,0,0,419.05,26Z"/><rect class="cls-1" x="151.08" y="238.73" width="337.84" height="14" transform="translate(-45.75 416.04) rotate(-62.49)"/><polygon class="cls-1" points="372.35 90.82 414.74 63.83 416.92 114.04 372.35 90.82"/><polygon class="cls-1" points="223.08 377.42 225.26 427.62 267.65 400.63 223.08 377.42"/><polygon class="cls-1" points="396.19 539.79 396.19 506.57 410.78 506.57 410.78 522.17 404.9 539.79 396.19 539.79"/><polygon class="cls-1" points="417.22 539.79 417.22 506.57 431.81 506.57 431.81 522.17 425.94 539.79 417.22 539.79"/><rect class="cls-1" x="291.79" y="584.69" width="17.68" height="15.54"/><path class="cls-1" d="M226.27,535.43H208.19s-1.09-30.12,32.68-30.12,29,34.68,19,47.09-25.32,30.49-25.32,30.49h38.28v17.34H208.19v-15L243.73,546A24.21,24.21,0,0,0,250,529.74h0a10.38,10.38,0,0,0-10.38-10.38h0a13.41,13.41,0,0,0-13.41,13.71Z"/><path class="cls-1" d="M369.76,550.93c8.45-3.66,14.08-10.55,14.08-19.85,0-14.24-13.2-25.77-29.48-25.77s-29.48,11.53-29.48,25.77c0,9.3,5.64,16.19,14.08,19.85-9.89,4.76-16.59,14-16.59,24.52,0,15.45,14.33,24.78,32,24.78s32-9.33,32-24.78C386.35,564.89,379.65,555.69,369.76,550.93Zm-15.4-33.39c6.14,0,11.13,6.06,11.13,13.54s-5,13.53-11.13,13.53-11.12-6.06-11.12-13.53S348.22,517.54,354.36,517.54Zm0,69.53a14.36,14.36,0,1,1,14.47-14.36A14.41,14.41,0,0,1,354.36,587.07Z"/></svg>