<svg id="Слой_1" data-name="Слой 1" xmlns="http://www.w3.org/2000/svg" viewBox="0 0 640 626.19"><defs><style>.cls-1{fill:#a1acaf;}</style></defs><path class="cls-1" d="M316.14,477.07h18.37s1.7-17.81-19.42-26.15-50.3,4.24-46.77,28.24,42,20.46,46.77,34.1S306.76,528.8,303.54,529s-17.25,1.51-19.9-15.16H265.36s-1.11,29.56,34.59,29.56,39.68-25,32.48-37.33-24.82-15.91-33.35-19.14c-7.46-2.81-17.53-10.13-10.28-18.9a15.86,15.86,0,0,1,10.28-5.62C309.83,461.12,316.14,471,316.14,477.07Z"/><rect class="cls-1" x="350.18" y="449.79" width="17.94" height="92.46"/><polygon class="cls-1" points="480.84 449.79 480.84 542.25 462.91 542.25 462.91 478.4 440.11 542.25 427.99 542.25 405.19 478.4 405.19 542.25 387.26 542.25 387.26 449.79 410.81 449.79 434.05 517.81 457.29 449.79 480.84 449.79"/><path class="cls-1" d="M176.88,477.89H159.16s-1.07-29.54,32.05-29.54,28.46,34,18.61,46.19S185,524.43,185,524.43h37.53v17H159.16V526.76L194,488.26a23.74,23.74,0,0,0,6.15-15.95h0A10.18,10.18,0,0,0,190,462.13h0a13.15,13.15,0,0,0-13.15,13.45Z"/><path class="cls-1" d="M462.12,82.8V342.2h-72V162.81a8,8,0,0,0-8-8H257.89v-12.7L317.21,82.8Z"/><path class="cls-1" d="M237.2,162.81l-59.32,59.31V422.21H382.11V162.81Zm49.16,88.09,1.32-1.32h21.88l1.31,1.32v49.83l-1.31,1.32H287.68l-1.32-1.32Zm-34,0,1.31-1.32h21.88l1.31,1.32v49.83l-1.31,1.32H253.64l-1.31-1.32Zm-37.45,11.41,12.31-12.73h10.67l2.5,2.5V300.7l-1.48,1.35H216.37l-1.49-1.35Zm28,139.25-1.62,1.63H225.35l-10.47-8.93V356.13l1.49-1.35h24.88l1.61,2.08Zm34,.31-1.31,1.32H250.77l-1.33-1.32V356.09l1.33-1.31h24.75l1.31,1.31Zm34,0-1.31,1.32H287.68l-1.32-1.32V356.09l1.32-1.31h21.88l1.31,1.31Zm34.06-10.3-12.36,12.34H321.86a2.41,2.41,0,0,1-2.41-2.39V344.06a4.79,4.79,0,0,0-.37-1.86,4.86,4.86,0,0,0-4.47-3H216.39l-1.51-1.51V313l1.87-1.86H342.5l2.43,2.43Zm0-90.9L343.44,302h-22.5l-1.49-1.36V252.05l2.5-2.48h14.5l1.45,1.6,7,7.75Z"/></svg>