<svg id="Слой_1" data-name="Слой 1" xmlns="http://www.w3.org/2000/svg" viewBox="0 0 640 626.19"><defs><style>.cls-1{fill:#a1acaf;}</style></defs><path class="cls-1" d="M236.36,231.3l-37.81-55.39,5.29-13.54,24.5-62.67a54.66,54.66,0,0,1,70.79-31L406,110.44l13.53,5.29L247.18,233.34a7.77,7.77,0,0,1-10.82-2Z"/><path class="cls-1" d="M469.16,173.27a54.33,54.33,0,0,1-3.76,19.08L328,544a54.65,54.65,0,0,1-70.79,31L121.91,522.14a54.64,54.64,0,0,1-31-70.79l59.76-152.91L156,284.91l87.58,128.32a9.11,9.11,0,0,0,12.67,2.39L321,371.42a9.11,9.11,0,0,0,2.39-12.67L281,296.63a7.78,7.78,0,0,1,2-10.82l184.67-126A54.39,54.39,0,0,1,469.16,173.27Z"/><path class="cls-1" d="M547.83,84.69,531,60a28.79,28.79,0,0,0-40-7.55l-85,58L243.9,221.05l-40.06-58.68-14.13-20.7a20.06,20.06,0,0,0-36.29,7.61L132.48,260.73a21.23,21.23,0,0,0,3.35,16l14.83,21.73,83,121.56A21.1,21.1,0,0,0,263,425.53l64.77-44.2A21.12,21.12,0,0,0,333.26,352l-40-58.64L469.16,173.27l71.12-48.54a28.8,28.8,0,0,0,7.55-40Zm-14.31,30.13-65.86,45L283,285.81a7.78,7.78,0,0,0-2,10.82l42.4,62.12A9.11,9.11,0,0,1,321,371.42l-64.76,44.2a9.11,9.11,0,0,1-12.67-2.39L156,284.91l-10.21-15a9.4,9.4,0,0,1-1.47-7l20.94-111.45a8,8,0,0,1,8-6.58,7.89,7.89,0,0,1,6.61,3.52l18.75,27.48,37.81,55.39a7.77,7.77,0,0,0,10.82,2L419.49,115.73,497.7,62.35a16.8,16.8,0,0,1,23.36,4.41l16.86,24.7A16.81,16.81,0,0,1,533.52,114.82Z"/></svg>