<svg id="Слой_1" data-name="Слой 1" xmlns="http://www.w3.org/2000/svg" viewBox="0 0 640 626.19"><defs><style>.cls-1{fill:#a1acaf;}</style></defs><path class="cls-1" d="M312.49,175.85l28.43-23c30.16-24.42,60.12-49.08,90.54-73.18,21.37-16.92,52.23-9.91,63,14,2.48,5.48,3.36,11.68,5,17.51,25.57-12.74,45.14-10.49,58.42,6.86,13.67,17.87,11.32,38.27-7,58.72a38.61,38.61,0,0,1,25.75,16.45A41.37,41.37,0,0,1,568.93,249c-10.7,8.75-21.45,17.43-32.18,26.15-.61.5-1.15,1.07-2,1.88,4.07,1.46,8,2.36,11.4,4.19,25.37,13.56,29.07,49.66,6.81,68C528.14,369.63,503,389.71,478.07,410q-65,52.69-130,105.38c-48.71,39.26-103.49,50.79-163.68,33.93C135.4,535.54,99.49,505.1,76.13,460.2a168.8,168.8,0,0,1-18.62-69.89c-2.62-52,14.11-97,50.09-134.41,11.48-11.93,25.09-21.85,38-32.38,31.34-25.61,62.9-50.94,94.21-76.6,10-8.18,20.64-14.3,34-13.12,21.67,1.92,36.35,16.86,38.37,38.45C312.21,173.18,312.31,174.1,312.49,175.85ZM224.41,268l.42,1.26h9.23c58.14,0,105.6,43.74,110.26,101.64,5,62.54-42.85,117-105.13,119.46-56.31,2.27-104.7-36.51-114-91.84-5.2-30.92.65-59.52,20-84.83,11.67-15.29,27.11-26.49,41.79-38.47,33.13-27.05,66.56-53.74,99.78-80.68,13.76-11.17,12.34-32.54-2.54-41.21-10.78-6.28-20.75-5-31.7,3.91-31.77,25.83-63.62,51.55-95.33,77.46-13,10.64-26.8,20.6-38.36,32.66C86.51,301,71.08,341.53,73.25,388.46A156.14,156.14,0,0,0,90.42,453c17.73,34.61,44.52,60,80.58,74.76,52.48,21.42,103.47,17.66,151-13.49,19.82-13,37.63-29.07,56.14-44q62.76-50.62,125.31-101.52c12.67-10.27,25.4-20.47,38-30.82,9.27-7.62,12.7-18.73,9.08-28.5-6.44-17.38-26.08-22.47-40.84-10.51q-55.09,44.61-110.18,89.27c-1.16.94-2.47,1.68-4.44,3,0-5.65.41-10.19-.11-14.62-.57-4.89,1.13-8.36,4.78-11.3Q435.88,336.12,472,306.9q43.09-34.86,86.16-69.74c15.5-12.6,12.7-35.8-5.34-43.43-10.7-4.53-20-1-28.66,6q-68.82,55.83-137.75,111.54c-1.24,1-2.58,1.86-4.17,3-2.35-4-4.36-7.66-6.5-11.18-1.83-3-1.15-5.2,1.59-7.26,4-3,7.82-6.22,11.7-9.35q59.42-48,118.81-96.06c11.9-9.64,24-19.06,35.36-29.3,9.54-8.6,10.12-22.72,2.52-32.66-8-10.39-20.66-13.24-32.08-6.92a63.53,63.53,0,0,0-8.87,6.43Q481.83,146.48,459,165.09q-46.51,37.77-93,75.54c-7.84,6.35-15.71,12.65-23.63,19l-13.66-11.19c2-1.84,3.43-3.24,5-4.47Q384.28,203,435,162c12.81-10.36,25.71-20.61,38.44-31.07,10.21-8.4,12.22-22.2,5.13-33.3-6.9-10.81-20.19-14.58-32-8.52-4.67,2.4-8.87,5.84-13,9.17q-95.26,77.15-190.43,154.4C236.86,257.77,230.65,262.9,224.41,268Zm9.47,204.8c49.74,1,93.44-40.42,93.41-93.11,0-51.22-41.91-93.27-93-93.32-51.37,0-93.54,42.09-93.47,93.39A93.14,93.14,0,0,0,233.88,472.81Z"/></svg>