<svg id="Слой_1" data-name="Слой 1" xmlns="http://www.w3.org/2000/svg" viewBox="0 0 640 626.19"><defs><style>.cls-1{fill:#a1acaf;}</style></defs><path class="cls-1" d="M263.36,74.54,184.85,153V417.87h270.3V74.54Zm65.05,116.6,1.75-1.75h28.95l1.74,1.75v65.94l-1.74,1.75H330.16l-1.75-1.75Zm-45,0,1.73-1.75h29l1.74,1.75v65.94l-1.74,1.75h-29l-1.73-1.75Zm-49.57,15.1,16.29-16.85h14.11l3.31,3.3V257l-2,1.79H235.78l-2-1.79Zm37,184.3-2.14,2.15h-21l-13.84-11.82V330.41l2-1.79h32.94l2.12,2.75Zm45,.4-1.74,1.75H281.32l-1.75-1.75V330.36l1.75-1.74h32.76l1.74,1.74Zm45,0-1.74,1.75H330.16l-1.75-1.75V330.36l1.75-1.74h28.95l1.74,1.74Zm45.07-13.63-16.33,16.34H375.4a3.18,3.18,0,0,1-3.18-3.17v-76a6.43,6.43,0,0,0-6.43-6.42h-130l-2-2V273.29l2.47-2.46H402.72l3.2,3.21Zm0-120.3-1.95,1.8h-29.8l-1.95-1.8V192.66l3.31-3.29h19.19l11.2,12.38Z"/><polygon class="cls-1" points="164.51 486.28 164.51 472.07 204.49 458.05 204.49 550.51 186.49 550.51 186.49 479.58 164.51 486.28"/><path class="cls-1" d="M310.78,485.33h18.38s1.7-17.81-19.42-26.14-50.3,4.23-46.77,28.23,42,20.46,46.77,34.1-8.34,15.54-11.56,15.73-17.24,1.51-19.89-15.16H260s-1.1,29.56,34.6,29.56,39.68-25,32.48-37.33-24.82-15.91-33.35-19.13c-7.46-2.82-17.53-10.14-10.29-18.9a15.8,15.8,0,0,1,10.29-5.62C304.48,469.38,310.78,479.21,310.78,485.33Z"/><rect class="cls-1" x="344.83" y="458.05" width="17.94" height="92.46"/><polygon class="cls-1" points="475.49 458.05 475.49 550.51 457.56 550.51 457.56 486.66 434.76 550.51 422.64 550.51 399.84 486.66 399.84 550.51 381.91 550.51 381.91 458.05 405.46 458.05 428.7 526.07 451.94 458.05 475.49 458.05"/></svg>