<svg id="Слой_1" data-name="Слой 1" xmlns="http://www.w3.org/2000/svg" viewBox="0 0 640 626.19"><defs><style>.cls-1{fill:#a1acaf;}</style></defs><path class="cls-1" d="M502.59,169.85H101.16a44,44,0,0,0-44,44V412.38a44,44,0,0,0,44,43.95H502.59a44,44,0,0,0,44-43.95V213.81A44,44,0,0,0,502.59,169.85Zm20,242.53a20,20,0,0,1-20,19.95H101.16a20,20,0,0,1-20-19.95V213.81a20,20,0,0,1,20-20H502.59a20,20,0,0,1,20,20Z"/><path class="cls-1" d="M117.46,208.12h30.35V418.06H117.46c-10.12,0-18.34-7.88-18.34-17.57V225.69C99.12,216,107.34,208.12,117.46,208.12Z"/><rect class="cls-1" x="159.81" y="208.12" width="86.62" height="209.94"/><rect class="cls-1" x="258.43" y="208.12" width="86.62" height="209.94"/><rect class="cls-1" x="357.05" y="208.12" width="86.61" height="209.94"/><path class="cls-1" d="M504.63,225.69v174.8c0,9.69-8.22,17.57-18.34,17.57H455.66V208.12h30.63C496.41,208.12,504.63,216,504.63,225.69Z"/><path class="cls-1" d="M582.8,281.14v63.92A18.94,18.94,0,0,1,563.86,364H534.55V262.19h29.31A19,19,0,0,1,582.8,281.14Z"/></svg>