<svg id="Слой_1" data-name="Слой 1" xmlns="http://www.w3.org/2000/svg" viewBox="0 0 640 626.19"><defs><style>.cls-1{fill:#a1acaf;}</style></defs><path class="cls-1" d="M231.34,165.06a6,6,0,0,1,5.95,5.47l16,113.23c5.27,37.41-23,70.45-56.11,70.45a50.78,50.78,0,0,1-12.64-1.61h0c-38.15-9.84-52.44-59.52-26.9-93.49l68.72-91.41a6.25,6.25,0,0,1,5-2.64m0-16a22.15,22.15,0,0,0-17.81,9l-68.72,91.4a79.37,79.37,0,0,0-11.7,74c7.93,22.62,25.2,38.88,47.4,44.6a66.53,66.53,0,0,0,16.63,2.12c19.93,0,39.35-9.18,53.26-25.2a79.68,79.68,0,0,0,18.69-63.48L253.14,168.3a22,22,0,0,0-21.8-19.24Z"/><path class="cls-1" d="M369,45.82a6.05,6.05,0,0,1,6,5.47l15.95,113.23C396.2,201.93,368,235,334.82,235a50.76,50.76,0,0,1-12.63-1.61h0c-38.15-9.84-52.45-59.52-26.9-93.5L364,48.46a6.26,6.26,0,0,1,5-2.64m0-16a22.18,22.18,0,0,0-17.82,9l-68.71,91.4a79.32,79.32,0,0,0-11.7,74c7.92,22.63,25.2,38.89,47.39,44.61A66.58,66.58,0,0,0,334.82,251c19.94,0,39.35-9.18,53.27-25.2a79.76,79.76,0,0,0,18.69-63.48l-16-113.23A22,22,0,0,0,369,29.82Z"/><path class="cls-1" d="M472.72,165.06a6.05,6.05,0,0,1,6,5.47l15.95,113.23c5.27,37.41-23,70.45-56.11,70.45a50.78,50.78,0,0,1-12.64-1.61h0c-38.15-9.84-52.44-59.52-26.9-93.49L467.7,167.7a6.25,6.25,0,0,1,5-2.64m0-16a22.16,22.16,0,0,0-17.81,9l-68.72,91.4a79.34,79.34,0,0,0-11.69,74c7.92,22.62,25.19,38.88,47.39,44.6a66.58,66.58,0,0,0,16.63,2.12c19.93,0,39.35-9.18,53.27-25.2a79.71,79.71,0,0,0,18.68-63.48l-16-113.23a22,22,0,0,0-21.8-19.24Z"/><rect class="cls-1" x="115.84" y="388.86" width="408.32" height="38.02"/><rect class="cls-1" x="143.38" y="465.22" width="24.82" height="128.65"/><rect class="cls-1" x="197.57" y="465.22" width="24.82" height="128.65"/><path class="cls-1" d="M254.19,465.22H197.57v81.67h56.62a40.84,40.84,0,0,0,0-81.67Zm9.51,57.13a23,23,0,0,1-16.3,6.75h-32V483h32a23,23,0,0,1,16.3,39.34Z"/><path class="cls-1" d="M401.63,553.58c-1.51-32.84-24.5-57.35-64.92-32.84,0,0-9.6-50.53,47.49-34.11l4.93-17.05s-22.17-12.13-53.81.95-34,98-2.91,118.17S403.15,586.42,401.63,553.58Zm-43.16,21.85c-10.78,1.12-20.6-8.35-21.93-21.15s6.34-24.08,17.11-25.2,20.6,8.35,21.93,21.15S369.25,574.31,358.47,575.43Z"/><path class="cls-1" d="M414.89,465.22H506.6V483s-48.13,50.23-37.89,110.87H442.56S434.47,538.76,483,483H414.89Z"/></svg>