<svg id="Слой_1" data-name="Слой 1" xmlns="http://www.w3.org/2000/svg" viewBox="0 0 640 626.19"><defs><style>.cls-1{fill:#a1acaf;}</style></defs><path class="cls-1" d="M569.35,115.16H70.65a24,24,0,0,0-24,24V461.64A49.44,49.44,0,0,0,96,511H544a49.44,49.44,0,0,0,49.39-49.39V139.16A24,24,0,0,0,569.35,115.16Zm0,346.48A25.39,25.39,0,0,1,544,487H96a25.39,25.39,0,0,1-25.39-25.39V139.16h498.7Z"/><path class="cls-1" d="M593.35,139.16v9.27l-24,19.58L343.92,351.94a37.81,37.81,0,0,1-47.84,0L70.65,168l-24-19.58v-9.27h24l228.4,186.35a33.11,33.11,0,0,0,41.9,0l228.4-186.35Z"/></svg>