<svg id="Слой_1" data-name="Слой 1" xmlns="http://www.w3.org/2000/svg" viewBox="0 0 640 626.19"><defs><style>.cls-1{fill:#a1acaf;}</style></defs><path class="cls-1" d="M406.65,536H233.35a40.9,40.9,0,0,1-40.86-40.85V131a40.9,40.9,0,0,1,40.86-40.85h173.3A40.9,40.9,0,0,1,447.51,131V495.18A40.9,40.9,0,0,1,406.65,536ZM233.35,104.16A26.88,26.88,0,0,0,206.49,131V495.18A26.88,26.88,0,0,0,233.35,522h173.3a26.88,26.88,0,0,0,26.86-26.85V131a26.88,26.88,0,0,0-26.86-26.85Z"/><path class="cls-1" d="M374,149.71H266a17.36,17.36,0,0,0-17.37,17.37V298.82A17.36,17.36,0,0,0,266,316.19H374a17.36,17.36,0,0,0,17.36-17.37V167.08A17.36,17.36,0,0,0,374,149.71Zm.9,133.92A13.36,13.36,0,0,1,361.55,297H278.46a13.36,13.36,0,0,1-13.36-13.36V182.27a13.36,13.36,0,0,1,13.36-13.36h83.09a13.36,13.36,0,0,1,13.36,13.36Z"/><circle class="cls-1" cx="320" cy="412.32" r="18.57"/><path class="cls-1" d="M320,377.07a35.25,35.25,0,1,1-35.24,35.25A35.25,35.25,0,0,1,320,377.07m0-18a53.25,53.25,0,1,0,53.24,53.25A53.3,53.3,0,0,0,320,359.07Z"/></svg>