<svg id="Слой_1" data-name="Слой 1" xmlns="http://www.w3.org/2000/svg" viewBox="0 0 640 626.19"><defs><style>.cls-1{fill:#a1acaf;}</style></defs><path class="cls-1" d="M479,117.61l-8.31-3.89L325,45.47a47.82,47.82,0,0,0-20.44-4.56A48.4,48.4,0,0,0,260.83,68.7l-26.55,56.69C215.06,115,178.83,98.16,144.64,98.16c-18.48,0-34.3,4.85-47,14.4l-.19.15c-12.85,10-20.62,23.74-23.75,41.9-2.5,14.48-1.72,29.62-1,44.27,2.13,41.54.08,56.42-31.19,60.21A25.4,25.4,0,0,0,19.18,284.3,21.83,21.83,0,0,0,41,306.11a23.87,23.87,0,0,0,2.54-.14c18.39-2.14,33-6.75,44.68-14.09A63,63,0,0,0,112.6,264c9-20,7.69-43.52,6.54-64.25-1.45-25.93-1.59-42.16,8.64-48.9l.2-.13c4.71-3.22,11-4.85,18.81-4.85,17.32,0,41,7.87,67.43,22.34l-49.79,106.3a17.26,17.26,0,0,0,8.29,22.9l58.35,27.34,13.83,6.47,11.46-10.09-13.83-6.48-63.86-29.91a3.23,3.23,0,0,1-1.56-4.29l55.26-118c-11.28-6.74-52.14-30.6-85.57-30.6-9.87,0-19.09,2.08-26.72,7.29C75,168.89,153.62,279.07,41.9,292.06a7.09,7.09,0,0,1-.92.05,7.82,7.82,0,0,1-7.8-7.81,11.41,11.41,0,0,1,10-11.31c84.09-10.21,12.29-109.79,62.83-149.24,11.15-8.39,24.58-11.59,38.58-11.59,45,0,95.82,33.05,95.82,33.05l33-70.57A34.21,34.21,0,0,1,319,58.15l140.18,65.66,13.83,6.48,10.5-9.25A13.85,13.85,0,0,0,479,117.61Z"/><path class="cls-1" d="M593,171l-8.79-4.12-13.83-6.47L559,170.53,572.79,177l14.31,6.7a34.24,34.24,0,0,1,16.48,45.53l-96.4,205.81a3.22,3.22,0,0,1-2.92,1.86,3.18,3.18,0,0,1-1.37-.31l-34.42-16.12-33.63,71.79a2.38,2.38,0,0,1-2.15,1.36,2.33,2.33,0,0,1-1-.22l-19.95-9.34L373.84,565a10.86,10.86,0,1,1-19.67-9.22l37.91-80.95-60.73-28.44-37.92,80.95A10.84,10.84,0,0,1,279,532.59h0a10.85,10.85,0,0,1-5.23-14.44l37.91-80.95-19-8.9a2.37,2.37,0,0,1-1.14-3.14l.36-.77,14.88-31.76L280.45,415.8l-1.6,3.41A16.37,16.37,0,0,0,286.76,441l6.29,2.95-32,68.27a24.85,24.85,0,0,0,11.31,32.74c.22.11.44.23.67.33a24.6,24.6,0,0,0,10.53,2.35,25,25,0,0,0,22.52-14.33l32-68.26,35.37,16.56-32,68.27A24.87,24.87,0,0,0,364,585.28,25,25,0,0,0,386.52,571l32-68.27,7.27,3.41a16.25,16.25,0,0,0,6.93,1.54,16.45,16.45,0,0,0,14.8-9.36l0-.06,27.69-59.11L497,449.28A17.22,17.22,0,0,0,519.87,441l96.39-205.78A48.3,48.3,0,0,0,593,171Z"/><path class="cls-1" d="M459.22,123.81,247.11,310.62l-4.58,4,13.83,6.48L473.05,130.29Zm149.57-22L575.9,64.5a32.59,32.59,0,0,0-46-2.93l-59.22,52.15-6.88,6.06-4.58,4L247.11,310.62l-4.58,4-11.46,10.1L93.24,446.13a32.58,32.58,0,0,0-2.92,46l32.9,37.36a32.6,32.6,0,0,0,46,2.92L279.88,435l12-10.57L316,403.13,568.21,181l4.58-4,11.46-10.1,21.63-19a32.58,32.58,0,0,0,2.91-46Zm-12.16,35.5-26.21,23.09L559,170.53,306.77,392.62,280.45,415.8,160,521.9a18.6,18.6,0,0,1-26.24-1.66l-32.9-37.36a18.59,18.59,0,0,1,1.66-26.24L244.9,331.22l11.46-10.09L473.05,130.29l10.5-9.25,55.6-49a18.58,18.58,0,0,1,26.24,1.67l32.9,37.36A18.59,18.59,0,0,1,596.63,137.35Z"/></svg>