<svg id="Слой_1" data-name="Слой 1" xmlns="http://www.w3.org/2000/svg" viewBox="0 0 640 626.19"><defs><style>.cls-1{fill:#a1acaf;}</style></defs><polygon class="cls-1" points="400.17 128.19 291.54 279.77 373.39 279.77 338.02 409.11 455.24 237.83 373.39 235.81 400.17 128.19"/><path class="cls-1" d="M468.44,84.73H278.34a27.19,27.19,0,0,0-27.16,27.16V425.41a27.18,27.18,0,0,0,27.16,27.15h190.1a27.18,27.18,0,0,0,27.16-27.15V111.89A27.19,27.19,0,0,0,468.44,84.73ZM483.6,425.41a15.17,15.17,0,0,1-15.16,15.15H278.34a15.17,15.17,0,0,1-15.16-15.15V111.89a15.18,15.18,0,0,1,15.16-15.16h190.1a15.18,15.18,0,0,1,15.16,15.16Z"/><path class="cls-1" d="M432.62,452.56V498a61,61,0,0,1-60.9,60.9H230a61,61,0,0,1-60.9-60.9V219.13h12.47V498A48.48,48.48,0,0,0,230,546.43H371.72A48.47,48.47,0,0,0,420.14,498V452.56Z"/><path class="cls-1" d="M406.3,444.86h40.17a0,0,0,0,1,0,0v28.89a4.45,4.45,0,0,1-4.45,4.45H410.75a4.45,4.45,0,0,1-4.45-4.45V444.86A0,0,0,0,1,406.3,444.86Z"/><path class="cls-1" d="M187.52,193.74v13.39H160.86V193.74h-12V210.2a9,9,0,0,0,8.94,8.93h32.78a9,9,0,0,0,8.94-8.93V193.74Z"/><path class="cls-1" d="M200.24,121.49h-52.1a11.6,11.6,0,0,0-11.59,11.59v49.07a11.6,11.6,0,0,0,11.59,11.59h52.1a11.61,11.61,0,0,0,11.59-11.59V133.08A11.6,11.6,0,0,0,200.24,121.49Zm-.41,60.25H148.55V133.49h51.28Z"/><path class="cls-1" d="M196.86,92.89v28.6h-12V94.84H163.52v26.65h-12V92.89a10.06,10.06,0,0,1,10-10h25.24A10.06,10.06,0,0,1,196.86,92.89Z"/></svg>