<svg id="Слой_1" data-name="Слой 1" xmlns="http://www.w3.org/2000/svg" viewBox="0 0 640 626.19"><defs><style>.cls-1{fill:#a1acaf;}</style></defs><path class="cls-1" d="M183.92,213.27v16.66a4.25,4.25,0,0,1-6.74,3.45c-10.93-7.95-33.16-21.57-51.5-16.64-25.39,6.82-29,24.44-26.9,36s8.34,28,46.23,42.63,62.15,45.09,47.75,93.6C179,435.42,111,444,70,417.34a11.69,11.69,0,0,1-5.28-9.81V390.44a4.25,4.25,0,0,1,6.64-3.52c9.22,6.23,26.66,16.55,43.38,18.47,23.37,2.68,54.48-6.84,50.39-44.82a35.12,35.12,0,0,0-2.58-10.29C150,321.4,105.89,329.69,77.87,285.43a64,64,0,0,1-8.7-20.65c-11-51.62,47.81-98,109-61.59A11.73,11.73,0,0,1,183.92,213.27Z"/><path class="cls-1" d="M565.89,213.27v16.66a4.24,4.24,0,0,1-6.73,3.45c-10.93-7.95-33.16-21.57-51.5-16.64-25.39,6.82-29,24.44-26.9,36s8.33,28,46.23,42.63,62.15,45.09,47.75,93.6C561,435.42,493,444,451.93,417.34a11.69,11.69,0,0,1-5.28-9.81V390.44a4.25,4.25,0,0,1,6.64-3.52c9.22,6.23,26.66,16.55,43.38,18.47,23.37,2.68,54.48-6.84,50.39-44.82a35.43,35.43,0,0,0-2.58-10.29c-12.54-28.88-56.61-20.59-84.63-64.85a63.53,63.53,0,0,1-8.7-20.65c-11-51.62,47.81-98,109-61.59A11.72,11.72,0,0,1,565.89,213.27Z"/><path class="cls-1" d="M321.81,430.53a92.45,92.45,0,0,1-92.34-92.34V284.76a92.34,92.34,0,1,1,184.67,0v53.43A92.44,92.44,0,0,1,321.81,430.53Zm0-214.11a68.42,68.42,0,0,0-68.34,68.34v53.43a68.34,68.34,0,1,0,136.67,0V284.76A68.41,68.41,0,0,0,321.81,216.42Z"/></svg>