<svg id="Слой_1" data-name="Слой 1" xmlns="http://www.w3.org/2000/svg" viewBox="0 0 640 626.19"><defs><style>.cls-1{fill:#a1acaf;}</style></defs><polygon class="cls-1" points="212.19 505.31 212.19 600.23 192.93 600.23 192.93 522.24 174.67 522.24 174.67 508.63 212.19 505.31"/><path class="cls-1" d="M273.91,506.57h66.76v12.95s-35,36.57-27.59,80.71h-19s-5.89-40.13,29.42-80.71H273.91Z"/><path class="cls-1" d="M349.19,506.57H416v12.95s-35,36.57-27.59,80.71h-19s-5.88-40.13,29.43-80.71H349.19Z"/><rect class="cls-1" x="244.72" y="584.69" width="17.68" height="15.54"/><polygon class="cls-1" points="429.7 539.79 429.7 506.57 444.3 506.57 444.3 522.17 438.42 539.79 429.7 539.79"/><polygon class="cls-1" points="450.74 539.79 450.74 506.57 465.33 506.57 465.33 522.17 459.45 539.79 450.74 539.79"/><path class="cls-1" d="M419.05,40a18.19,18.19,0,0,1,18.19,18.19V433.31a18.19,18.19,0,0,1-18.19,18.18H221a18.19,18.19,0,0,1-18.19-18.18V58.15A18.19,18.19,0,0,1,221,40h198.1m0-14H221a32.23,32.23,0,0,0-32.19,32.19V433.31A32.22,32.22,0,0,0,221,465.49h198.1a32.22,32.22,0,0,0,32.19-32.18V58.15A32.23,32.23,0,0,0,419.05,26Z"/><rect class="cls-1" x="151.08" y="238.73" width="337.84" height="14" transform="translate(-45.75 416.04) rotate(-62.49)"/><polygon class="cls-1" points="372.35 90.82 414.74 63.83 416.92 114.04 372.35 90.82"/><polygon class="cls-1" points="223.08 377.42 225.26 427.62 267.65 400.63 223.08 377.42"/></svg>