<svg id="Слой_1" data-name="Слой 1" xmlns="http://www.w3.org/2000/svg" viewBox="0 0 640 626.19"><defs><style>.cls-1{fill:#a1acaf;}</style></defs><path class="cls-1" d="M368.32,67.16H271.68a54.57,54.57,0,0,0-54.56,54.57v271.7A54.57,54.57,0,0,0,271.68,448h96.64a54.57,54.57,0,0,0,54.56-54.57V121.73A54.57,54.57,0,0,0,368.32,67.16ZM350,329.14l-63.16,89.43h-9.6L305,347.83l-24.25-.5L288,324.84l21.58-67.26h57.6l-38.94,67.26-2.49,4.3Zm45.8-119.24a20.72,20.72,0,0,1-20.72,20.71H264.93a20.72,20.72,0,0,1-20.72-20.71v-98a20.72,20.72,0,0,1,20.72-20.72H375.07a20.72,20.72,0,0,1,20.72,20.72Z"/><path class="cls-1" d="M521.45,559H118.55A7.64,7.64,0,0,1,111,550l29.76-155.9a85.22,85.22,0,0,1,61.32-66.24v65.61A69.64,69.64,0,0,0,271.68,463h96.64a69.64,69.64,0,0,0,69.56-69.57V327.82a85.22,85.22,0,0,1,61.32,66.24L529,550A7.64,7.64,0,0,1,521.45,559Z"/></svg>