<svg id="Слой_1" data-name="Слой 1" xmlns="http://www.w3.org/2000/svg" viewBox="0 0 640 626.19"><defs><style>.cls-1{fill:#a1acaf;}</style></defs><circle class="cls-1" cx="320" cy="336.21" r="43.71"/><path class="cls-1" d="M320,434.58a98.37,98.37,0,1,1,98.37-98.37A98.48,98.48,0,0,1,320,434.58Zm0-166.73a68.37,68.37,0,1,0,68.37,68.36A68.44,68.44,0,0,0,320,267.85Z"/><path class="cls-1" d="M546.74,247.16c0-.43-.07-.86-.12-1.3a70.34,70.34,0,0,0-1.45-8.75c-.21-.93-.45-1.85-.71-2.77,0-.18-.09-.35-.14-.53-.15-.55-.32-1.11-.49-1.65s-.37-1.19-.57-1.77c-.37-1.09-.77-2.18-1.19-3.25s-.84-2-1.29-3l-.06-.13c-.24-.52-.48-1-.73-1.56s-.5-1-.77-1.54-.52-1-.8-1.52-.55-1-.83-1.49-.58-1-.88-1.47-.59-1-.9-1.45-.62-1-.94-1.43c-.63-.94-1.29-1.87-2-2.78-.34-.45-.68-.9-1-1.35-1.13-1.45-2.33-2.86-3.58-4.21-.29-.31-.58-.63-.87-.93s-.66-.68-1-1h0a70.66,70.66,0,0,0-50.27-21h-49.2l-17.54-25.18A49.16,49.16,0,0,0,369.07,136H270.93a49.16,49.16,0,0,0-40.32,21.05l-17.54,25.18h-49.2a70.6,70.6,0,0,0-50.27,21c-.34.33-.67.67-1,1l-.87.93c-1.25,1.36-2.45,2.76-3.58,4.21-.36.45-.7.9-1,1.35-.68.91-1.34,1.84-2,2.78-.32.47-.63.95-.94,1.43s-.61,1-.9,1.45-.59,1-.88,1.47-.56,1-.83,1.49-.54,1-.8,1.52-.52,1-.77,1.54-.49,1-.73,1.56l-.06.13c-.45,1-.88,2-1.29,3s-.82,2.16-1.19,3.25q-.3.88-.57,1.77c-.17.54-.34,1.1-.49,1.65-.05.17-.1.35-.14.53-.26.92-.5,1.84-.71,2.77a70.34,70.34,0,0,0-1.45,8.75c0,.44-.09.87-.12,1.3Q93,250.1,93,253.1V419.33a70.94,70.94,0,0,0,70.86,70.86H476.13A70.94,70.94,0,0,0,547,419.33V253.1Q547,250.1,546.74,247.16ZM250.3,170.77A25.17,25.17,0,0,1,270.93,160h98.14a25.17,25.17,0,0,1,20.63,10.77l8,11.46H242.32ZM523,419.33a46.91,46.91,0,0,1-46.86,46.86H163.87A46.91,46.91,0,0,1,117,419.33V253.1c0-.41,0-.82,0-1.23s0-.6,0-.89c0-.48,0-1,.09-1.45v0c0-.53.09-1.05.15-1.57s.15-1.31.25-2,.18-1.1.29-1.65.22-1.13.35-1.69a.36.36,0,0,0,0-.1c.12-.53.26-1.05.4-1.57s.29-1.06.45-1.58c0,0,0,0,0-.07a47,47,0,0,1,44.79-33.08H476.13a47,47,0,0,1,44.79,33.08s0,.05,0,.07c.16.52.31,1.05.45,1.58s.28,1,.4,1.57a.36.36,0,0,0,0,.1c.13.56.25,1.12.35,1.69s.2,1.1.29,1.65.18,1.3.25,2,.11,1,.15,1.57v0c0,.48.07,1,.09,1.45,0,.29,0,.59,0,.89s0,.82,0,1.23Z"/></svg>