<svg id="Слой_1" data-name="Слой 1" xmlns="http://www.w3.org/2000/svg" viewBox="0 0 640 626.19"><defs><style>.cls-1{fill:#a1acaf;}</style></defs><path class="cls-1" d="M315.73,517.08h18.38s1.7-17.81-19.43-26.15-50.29,4.23-46.76,28.23,42,20.46,46.76,34.11S306.35,568.8,303.13,569s-17.24,1.52-19.89-15.16H265s-1.1,29.56,34.6,29.56,39.68-25,32.48-37.32-24.82-15.92-33.35-19.14c-7.46-2.82-17.53-10.13-10.29-18.9a15.84,15.84,0,0,1,10.29-5.62C309.43,501.12,315.73,511,315.73,517.08Z"/><rect class="cls-1" x="349.78" y="489.79" width="17.94" height="92.46"/><polygon class="cls-1" points="480.44 489.8 480.44 582.25 462.51 582.25 462.51 518.4 439.71 582.25 427.59 582.25 404.79 518.4 404.79 582.25 386.86 582.25 386.86 489.8 410.41 489.8 433.65 557.82 456.89 489.8 480.44 489.8"/><path class="cls-1" d="M176.23,511.21h-14.9s.25-22.86,30.82-22.86,35.6,33,15.4,43.58v2.53s13.78,5.3,13.78,20.84-12.38,26.14-30,26.14-31.77-8.58-31.77-25h16.29s.13,12.13,16.05,12.13,15.66-26,5.18-27.79-16.93-1-16.93-1V527S203,531.55,203,515.51c0,0,.26-14.4-12.57-14.4S176.23,511.21,176.23,511.21Z"/><path class="cls-1" d="M502.12,42.8V302.21h-72V122.81a8,8,0,0,0-8-8H297.9v-12.7L357.22,42.8Z"/><path class="cls-1" d="M422.11,122.81v259.4h-72V202.82a8,8,0,0,0-8-8H217.89v-12.7l59.32-59.31Z"/><path class="cls-1" d="M197.2,202.82l-59.32,59.31V462.22H342.1V202.82Zm49.15,88.09,1.32-1.32h21.88l1.31,1.32v49.83l-1.31,1.32H247.67l-1.32-1.32Zm-34,0,1.31-1.32h21.88l1.31,1.32v49.83l-1.31,1.32H213.64l-1.31-1.32Zm-37.45,11.41,12.31-12.73h10.66l2.5,2.5v48.62l-1.48,1.35H176.36l-1.48-1.35Zm28,139.25-1.62,1.63H185.34l-10.46-8.93V396.14l1.48-1.35h24.89l1.6,2.08Zm34,.31-1.31,1.32H210.77l-1.33-1.32V396.1l1.33-1.31h24.75l1.31,1.31Zm34,0-1.31,1.32H247.67l-1.32-1.32V396.1l1.32-1.31h21.88l1.31,1.31Zm34.06-10.3-12.35,12.34H281.85a2.4,2.4,0,0,1-2.4-2.39V384.07a4.79,4.79,0,0,0-.37-1.86,4.88,4.88,0,0,0-4.48-3H176.39l-1.51-1.51V353l1.86-1.86H302.49l2.43,2.43Zm0-90.9L303.44,342H280.93l-1.48-1.36V292.06l2.5-2.48h14.5l1.45,1.6,7,7.75Z"/></svg>