<svg id="Слой_1" data-name="Слой 1" xmlns="http://www.w3.org/2000/svg" viewBox="0 0 640 626.19"><defs><style>.cls-1{fill:#a1acaf;}</style></defs><path class="cls-1" d="M301.81,321.09H147a26.21,26.21,0,0,1-26.19-26.18V140.13A26.22,26.22,0,0,1,147,113.94H301.81A26.22,26.22,0,0,1,328,140.13V294.91A26.21,26.21,0,0,1,301.81,321.09ZM147,129.94a10.2,10.2,0,0,0-10.19,10.19V294.91A10.2,10.2,0,0,0,147,305.09H301.81A10.2,10.2,0,0,0,312,294.91V140.13a10.2,10.2,0,0,0-10.19-10.19Z"/><path class="cls-1" d="M493,321.09H338.19A26.21,26.21,0,0,1,312,294.91V140.13a26.22,26.22,0,0,1,26.19-26.19H493a26.22,26.22,0,0,1,26.19,26.19V294.91A26.21,26.21,0,0,1,493,321.09ZM338.19,129.94A10.2,10.2,0,0,0,328,140.13V294.91a10.2,10.2,0,0,0,10.19,10.18H493a10.2,10.2,0,0,0,10.19-10.18V140.13A10.2,10.2,0,0,0,493,129.94Z"/><path class="cls-1" d="M301.81,512.25H147a26.22,26.22,0,0,1-26.19-26.19V331.28A26.22,26.22,0,0,1,147,305.09H301.81A26.22,26.22,0,0,1,328,331.28V486.06A26.22,26.22,0,0,1,301.81,512.25ZM147,321.09a10.21,10.21,0,0,0-10.19,10.19V486.06A10.2,10.2,0,0,0,147,496.25H301.81A10.2,10.2,0,0,0,312,486.06V331.28a10.21,10.21,0,0,0-10.19-10.19Z"/><path class="cls-1" d="M493,512.25H338.19A26.22,26.22,0,0,1,312,486.06V331.28a26.22,26.22,0,0,1,26.19-26.19H493a26.22,26.22,0,0,1,26.19,26.19V486.06A26.22,26.22,0,0,1,493,512.25ZM338.19,321.09A10.21,10.21,0,0,0,328,331.28V486.06a10.2,10.2,0,0,0,10.19,10.19H493a10.2,10.2,0,0,0,10.19-10.19V331.28A10.21,10.21,0,0,0,493,321.09Z"/><polygon class="cls-1" points="247.83 172.21 247.83 269.98 225.85 269.98 225.85 191.54 205.01 191.54 205.01 176 247.83 172.21"/><path class="cls-1" d="M407,203.47H388.23s-1.13-31.26,33.92-31.26,30.12,36,19.7,48.88-26.27,31.65-26.27,31.65h39.73v18H388.23V255.2l36.89-40.75a25.19,25.19,0,0,0,6.5-16.88h0a10.77,10.77,0,0,0-10.77-10.77h0A13.92,13.92,0,0,0,406.93,201Z"/><path class="cls-1" d="M213.73,391.43H194.59s.19-24.82,32.4-24.82,40,32.4,16.11,47.18c0,0,15.53,3.6,15.53,24.63s-21.22,25.2-32,25.2-33-6.06-33-26.9H212s1.33,11.93,14.12,11.93c10.66,0,18.88-14.34,10.36-23.73A15.5,15.5,0,0,0,225,420H213.54V407.16h14.78a9.29,9.29,0,0,0,9.28-9.29v-6.15a10.52,10.52,0,0,0-10.52-10.52h-3.31a10,10,0,0,0-10,10.23Z"/><path class="cls-1" d="M447.16,428.37V366.61H424.93l-38.66,62.27v12.63h39.41v22.11h21.48V441.13h8.34V428.37Zm-21.48,0H403.25l22.43-35.62Z"/></svg>