<svg width="151" height="145" viewBox="0 0 151 145" fill="none" xmlns="http://www.w3.org/2000/svg">
<path d="M108.334 95.8279H93.992C93.4721 95.8279 92.9735 95.6239 92.6058 95.2609C92.2382 94.8979 92.0317 94.4055 92.0317 93.8921C92.0317 93.3787 92.2382 92.8863 92.6058 92.5233C92.9735 92.1603 93.4721 91.9563 93.992 91.9563H108.334C108.504 91.9563 108.666 91.8898 108.786 91.7715C108.906 91.6532 108.973 91.4926 108.973 91.3253V33.7171C108.972 33.6352 108.955 33.5544 108.922 33.4791C108.89 33.4039 108.842 33.3357 108.783 33.2786C108.723 33.2214 108.653 33.1764 108.576 33.146C108.499 33.1156 108.417 33.1005 108.334 33.1015H74.6157C74.4634 33.0993 74.3161 33.1547 74.204 33.2564L62.5201 44.3676C62.4571 44.4233 62.4064 44.4912 62.3714 44.5672C62.3363 44.6432 62.3175 44.7255 62.3163 44.809V47.9062C62.3163 48.4196 62.1097 48.912 61.7421 49.275C61.3744 49.638 60.8758 49.842 60.3559 49.842C59.836 49.842 59.3373 49.638 58.9697 49.275C58.602 48.912 58.3955 48.4196 58.3955 47.9062V44.809C58.3973 44.2028 58.5233 43.6032 58.7659 43.0463C59.0084 42.4894 59.3626 41.9867 59.807 41.5685L71.4634 30.4844C72.305 29.681 73.4294 29.2313 74.6 29.23H108.318C109.525 29.229 110.683 29.7009 111.538 30.5421C112.393 31.3834 112.875 32.5253 112.878 33.7171V91.3253C112.877 92.5164 112.399 93.6588 111.547 94.5025C110.696 95.3462 109.54 95.8227 108.334 95.8279Z" fill="#0096D5"/>
<path d="M86.7194 54.9756V109.951H43.9832V65.3242L54.8633 54.9756H86.7155M88.0368 51.1041H54.3183C53.6481 51.1027 53.0038 51.3597 52.5226 51.8203L40.8584 62.9122C40.6091 63.1508 40.4111 63.4367 40.2764 63.7527C40.1416 64.0687 40.0729 64.4083 40.0742 64.7512V111.271C40.0737 111.608 40.1405 111.942 40.2708 112.253C40.401 112.564 40.5922 112.847 40.8333 113.085C41.0744 113.323 41.3608 113.512 41.6759 113.64C41.991 113.769 42.3288 113.835 42.6698 113.834H88.0368C88.378 113.835 88.7159 113.769 89.0313 113.64C89.3467 113.512 89.6333 113.323 89.8747 113.085C90.1161 112.847 90.3077 112.564 90.4383 112.253C90.569 111.942 90.6363 111.608 90.6363 111.271V53.667C90.6342 52.9876 90.3594 52.3367 89.8722 51.857C89.3849 51.3773 88.7249 51.1079 88.0368 51.1079V51.1041Z" fill="#0096D5"/>
</svg>
