<svg width="161" height="156" viewBox="0 0 161 156" fill="none" xmlns="http://www.w3.org/2000/svg">
<path d="M121.809 117.222H39.1912C37.4036 117.22 35.6897 116.511 34.4257 115.252C33.1616 113.992 32.4505 112.284 32.4482 110.503V62.1409C32.4505 60.3597 33.1616 58.6521 34.4257 57.3927C35.6897 56.1332 37.4036 55.4246 39.1912 55.4224H121.809C123.596 55.4257 125.308 56.1348 126.571 57.3941C127.835 58.6535 128.545 60.3605 128.547 62.1409V110.503C128.545 112.284 127.835 113.991 126.571 115.25C125.308 116.509 123.596 117.218 121.809 117.222ZM39.1912 58.7546C38.2902 58.7557 37.4264 59.1128 36.7892 59.7476C36.1521 60.3825 35.7937 61.2432 35.7926 62.1409V110.503C35.7937 111.401 36.1521 112.262 36.7892 112.897C37.4264 113.531 38.2902 113.889 39.1912 113.89H121.809C122.709 113.889 123.573 113.531 124.209 112.896C124.846 112.261 125.203 111.401 125.203 110.503V62.1409C125.203 61.2435 124.846 60.3828 124.209 59.7479C123.573 59.113 122.709 58.7557 121.809 58.7546H39.1912Z" fill="#0096D5"/>
<path d="M111.521 97.1163C111.521 97.5033 111.367 97.8745 111.093 98.1486C110.818 98.4226 110.446 98.5771 110.058 98.5783H91.7141C91.3451 98.5504 91.0003 98.3848 90.7488 98.1145C90.4972 97.8441 90.3574 97.4891 90.3574 97.1204C90.3574 96.7518 90.4972 96.3967 90.7488 96.1264C91.0003 95.8561 91.3451 95.6904 91.7141 95.6626H110.058C110.445 95.6626 110.817 95.8156 111.091 96.0881C111.365 96.3606 111.52 96.7303 111.521 97.1163Z" fill="#0096D5"/>
<path d="M111.521 86.445C111.522 86.6369 111.485 86.8272 111.412 87.0048C111.339 87.1824 111.231 87.3438 111.095 87.4798C110.959 87.6157 110.797 87.7234 110.619 87.7967C110.441 87.8701 110.25 87.9075 110.058 87.907H91.7141C91.3451 87.8792 91.0003 87.7135 90.7488 87.4432C90.4972 87.1729 90.3574 86.8178 90.3574 86.4492C90.3574 86.0805 90.4972 85.7255 90.7488 85.4551C91.0003 85.1848 91.3451 85.0191 91.7141 84.9913H110.058C110.445 84.9924 110.816 85.1458 111.09 85.4181C111.364 85.6903 111.519 86.0594 111.521 86.445Z" fill="#0096D5"/>
<path d="M111.521 75.807C111.521 76.1937 111.367 76.5645 111.092 76.8379C110.818 77.1112 110.446 77.2648 110.058 77.2648H91.7141C91.3451 77.237 91.0003 77.0714 90.7488 76.801C90.4972 76.5307 90.3574 76.1757 90.3574 75.807C90.3574 75.4384 90.4972 75.0833 90.7488 74.813C91.0003 74.5427 91.3451 74.377 91.7141 74.3492H110.058C110.25 74.3486 110.44 74.386 110.618 74.459C110.796 74.5321 110.958 74.6395 111.094 74.775C111.229 74.9104 111.337 75.0714 111.411 75.2485C111.484 75.4256 111.521 75.6154 111.521 75.807Z" fill="#0096D5"/>
<path d="M111.165 43.4099C111.065 43.556 110.935 43.6803 110.785 43.7755C110.635 43.8707 110.467 43.9347 110.292 43.9639L62.4887 52.3568L61.7948 52.4776V56.2555H59.0733V51.3405C59.07 51.0184 59.1811 50.7055 59.3868 50.4571C59.5926 50.2086 59.8798 50.0406 60.1978 49.9827L109.819 41.2982C109.897 41.2849 109.975 41.2779 110.053 41.2773C110.302 41.2787 110.545 41.3475 110.757 41.4765C110.969 41.6055 111.141 41.7897 111.255 42.0092C111.37 42.2287 111.422 42.4752 111.406 42.7221C111.39 42.9689 111.307 43.2068 111.165 43.4099Z" fill="#0096D5"/>
<path d="M63.2496 100.536C60.4261 100.539 57.6652 99.7081 55.316 98.1475C52.9668 96.587 51.1349 94.3673 50.0521 91.7692C48.9694 89.1711 48.6843 86.3114 49.2331 83.5519C49.7819 80.7924 51.1399 78.2571 53.1352 76.2667C55.1305 74.2763 57.6734 72.9203 60.4424 72.3703C63.2113 71.8203 66.0818 72.1009 68.6906 73.1767C71.2994 74.2525 73.5294 76.0751 75.0983 78.4139C76.6673 80.7527 77.5048 83.5027 77.5048 86.3159C77.5003 90.083 75.9976 93.6949 73.3256 96.3602C70.6537 99.0256 67.0305 100.527 63.2496 100.536ZM63.2496 75.428C61.0876 75.4247 58.9732 76.0605 57.174 77.2548C55.3748 78.4492 53.9715 80.1485 53.1419 82.1377C52.3122 84.1269 52.0935 86.3166 52.5132 88.4298C52.933 90.5429 53.9724 92.4845 55.5 94.0089C57.0276 95.5332 58.9746 96.5719 61.0948 96.9933C63.215 97.4148 65.4131 97.2002 67.4108 96.3766C69.4085 95.553 71.1162 94.1575 72.3176 92.3666C73.5191 90.5757 74.1604 88.47 74.1604 86.3159C74.1571 83.4321 73.0071 80.6672 70.9621 78.6265C68.9171 76.5858 66.1438 75.4357 63.2496 75.428Z" fill="#0096D5"/>
</svg>
