<svg width="137" height="136" viewBox="0 0 137 136" fill="none" xmlns="http://www.w3.org/2000/svg">
<g opacity="0.8">
<path d="M78.9708 39.2607H58.0293V64.5413H78.9708V39.2607Z" fill="white"/>
<path d="M53.1668 108.871C51.0926 108.866 49.1048 108.023 47.6382 106.526C46.1715 105.029 45.3455 103 45.3408 100.883V35.1575C45.3408 33.0364 46.1645 31.0018 47.6315 29.4996C49.0984 27.9974 51.0889 27.1501 53.1668 27.1434H83.8337C85.9116 27.1501 87.9021 27.9974 89.369 29.4996C90.8359 31.0018 91.6597 33.0364 91.6597 35.1575V100.883C91.655 103 90.8289 105.029 89.3623 106.526C87.8957 108.023 85.9078 108.866 83.8337 108.871H53.1668ZM68.4949 78.7321C66.7617 78.7314 65.0673 79.2554 63.6259 80.2379C62.1846 81.2203 61.061 82.6171 60.3975 84.2515C59.7339 85.8859 59.5601 87.6845 59.898 89.4197C60.236 91.155 61.0705 92.7489 62.296 93.9999C63.5216 95.2509 65.083 96.1028 66.7829 96.4478C68.4828 96.7928 70.2448 96.6153 71.8459 95.938C73.447 95.2606 74.8153 94.1137 75.7777 92.6424C76.7402 91.171 77.2535 89.4413 77.2528 87.6721C77.2509 85.3013 76.3277 83.0281 74.6858 81.3514C73.0439 79.6747 70.8174 78.7313 68.4949 78.7285V78.7321ZM58.0295 37.2999C57.5194 37.3008 57.0304 37.5081 56.6697 37.8763C56.309 38.2445 56.106 38.7437 56.105 39.2644V64.5449C56.106 65.0656 56.309 65.5648 56.6697 65.933C57.0304 66.3012 57.5194 66.5084 58.0295 66.5094H78.971C79.4811 66.5084 79.97 66.3012 80.3307 65.933C80.6914 65.5648 80.8945 65.0656 80.8954 64.5449V39.2607C80.8945 38.74 80.6914 38.2409 80.3307 37.8727C79.97 37.5045 79.4811 37.2972 78.971 37.2963L58.0295 37.2999ZM68.4949 96.4669C66.7909 96.4669 65.1251 95.9511 63.7083 94.9848C62.2915 94.0184 61.1872 92.6448 60.5351 91.0378C59.883 89.4307 59.7124 87.6624 60.0448 85.9564C60.3772 84.2503 61.1978 82.6832 62.4027 81.4533C63.6076 80.2233 65.1428 79.3857 66.8141 79.0463C68.4853 78.707 70.2177 78.8811 71.792 79.5468C73.3663 80.2125 74.7118 81.3397 75.6585 82.786C76.6052 84.2323 77.1105 85.9327 77.1105 87.6721C77.1077 90.0035 76.199 92.2384 74.5837 93.8865C72.9685 95.5347 70.7787 96.4614 68.4949 96.4633V96.4669ZM68.4949 85.9001C68.1502 85.9015 67.8136 86.0073 67.5277 86.204C67.2419 86.4007 67.0196 86.6795 66.8889 87.0052C66.7583 87.3309 66.7252 87.6888 66.7939 88.0336C66.8625 88.3785 67.0298 88.6948 67.2745 88.9427C67.5193 89.1905 67.8306 89.3587 68.169 89.4259C68.5073 89.4931 68.8577 89.4564 69.1756 89.3204C69.4936 89.1845 69.7649 88.9553 69.9553 88.6619C70.1456 88.3685 70.2465 88.024 70.2451 87.6721C70.2451 87.438 70.1997 87.2062 70.1116 86.9901C70.0236 86.7739 69.8945 86.5777 69.7318 86.4127C69.5691 86.2477 69.3761 86.1171 69.1639 86.0285C68.9516 85.9399 68.7242 85.895 68.4949 85.8965V85.9001Z" fill="white"/>
<path d="M83.833 28.9445C84.6293 28.9444 85.4177 29.105 86.153 29.4168C86.8883 29.7286 87.5561 30.1856 88.118 30.7615C88.6798 31.3374 89.1248 32.0209 89.4272 32.7728C89.7296 33.5247 89.8836 34.3301 89.8803 35.1429V100.868C89.8803 102.505 89.2432 104.075 88.1091 105.233C86.975 106.391 85.4369 107.041 83.833 107.041H53.1661C51.5622 107.041 50.0241 106.391 48.89 105.233C47.7559 104.075 47.1188 102.505 47.1188 100.868V35.1429C47.1155 34.3301 47.2695 33.5247 47.5719 32.7728C47.8744 32.0209 48.3193 31.3374 48.8812 30.7615C49.443 30.1856 50.1108 29.7286 50.8461 29.4168C51.5814 29.105 52.3698 28.9444 53.1661 28.9445H83.833ZM58.0288 68.3214H78.9703C79.9521 68.3204 80.8935 67.9218 81.5877 67.2131C82.282 66.5045 82.6724 65.5435 82.6734 64.5413V39.2607C82.6724 38.2585 82.282 37.2976 81.5877 36.5889C80.8935 35.8802 79.9521 35.4816 78.9703 35.4806H58.0288C57.047 35.4816 56.1056 35.8802 55.4114 36.5889C54.7171 37.2976 54.3267 38.2585 54.3257 39.2607V64.5413C54.3267 65.5435 54.7171 66.5045 55.4114 67.2131C56.1056 67.9218 57.047 68.3204 58.0288 68.3214ZM68.4942 98.4278C70.5789 98.4278 72.6167 97.7968 74.35 96.6145C76.0833 95.4323 77.4342 93.7519 78.232 91.7859C79.0298 89.8199 79.2385 87.6566 78.8318 85.5695C78.4251 83.4824 77.4213 81.5653 75.9472 80.0605C74.4731 78.5558 72.5951 77.5311 70.5505 77.1159C68.5059 76.7008 66.3867 76.9139 64.4607 77.7282C62.5347 78.5426 60.8886 79.9216 59.7304 81.691C58.5723 83.4603 57.9541 85.5405 57.9541 87.6685C57.956 90.5215 59.0671 93.257 61.0433 95.2744C63.0196 97.2917 65.6994 98.4259 68.4942 98.4278ZM68.4942 80.6893C70.3072 80.6903 72.0457 81.4259 73.3277 82.7345C74.6097 84.0432 75.3303 85.8178 75.3312 87.6685C75.3312 85.8175 74.6109 84.0423 73.3287 82.7335C72.0465 81.4246 70.3075 80.6893 68.4942 80.6893C66.6809 80.6893 64.9419 81.4246 63.6597 82.7335C62.3775 84.0423 61.6572 85.8175 61.6572 87.6685C61.66 85.8184 62.3813 84.0449 63.6628 82.7367C64.9444 81.4284 66.6818 80.6922 68.4942 80.6893ZM68.4942 80.6893C70.3072 80.6903 72.0457 81.4259 73.3277 82.7345C74.6097 84.0432 75.3303 85.8178 75.3312 87.6685C75.3312 85.8175 74.6109 84.0423 73.3287 82.7335C72.0465 81.4246 70.3075 80.6893 68.4942 80.6893C66.6809 80.6893 64.9419 81.4246 63.6597 82.7335C62.3775 84.0423 61.6572 85.8175 61.6572 87.6685C61.66 85.8184 62.3813 84.0449 63.6628 82.7367C64.9444 81.4284 66.6818 80.6922 68.4942 80.6893ZM68.4942 80.6893C70.3072 80.6903 72.0457 81.4259 73.3277 82.7345C74.6097 84.0432 75.3303 85.8178 75.3312 87.6685C75.3312 85.8175 74.6109 84.0423 73.3287 82.7335C72.0465 81.4246 70.3075 80.6893 68.4942 80.6893C66.6809 80.6893 64.9419 81.4246 63.6597 82.7335C62.3775 84.0423 61.6572 85.8175 61.6572 87.6685C61.66 85.8184 62.3813 84.0449 63.6628 82.7367C64.9444 81.4284 66.6818 80.6922 68.4942 80.6893ZM68.4942 80.6893C69.8465 80.6893 71.1683 81.0986 72.2927 81.8655C73.417 82.6324 74.2933 83.7224 74.8108 84.9977C75.3283 86.273 75.4637 87.6762 75.1999 89.0301C74.9361 90.3839 74.2849 91.6275 73.3287 92.6035C72.3725 93.5796 71.1543 94.2443 69.8281 94.5136C68.5018 94.7829 67.1271 94.6447 65.8778 94.1164C64.6285 93.5882 63.5607 92.6937 62.8095 91.5459C62.0582 90.3982 61.6572 89.0489 61.6572 87.6685C61.6581 85.8178 62.3788 84.0432 63.6608 82.7345C64.9427 81.4259 66.6812 80.6903 68.4942 80.6893ZM64.9761 87.6685C64.974 88.381 65.1791 89.0781 65.5655 89.6715C65.9519 90.2648 66.5021 90.7278 67.1465 91.0016C67.7909 91.2754 68.5004 91.3478 69.1851 91.2096C69.8699 91.0714 70.499 90.7288 70.9928 90.2252C71.4866 89.7217 71.8228 89.0798 71.9589 88.381C72.095 87.6822 72.0248 86.9578 71.7572 86.2998C71.4896 85.6417 71.0367 85.0796 70.4558 84.6846C69.8749 84.2895 69.1922 84.0794 68.4942 84.0809C67.5624 84.0828 66.6691 84.4613 66.0099 85.1336C65.3506 85.8059 64.9789 86.7173 64.9761 87.6685ZM68.4942 84.0809C69.4279 84.0799 70.3239 84.4571 70.9855 85.1297C71.647 85.8023 72.0202 86.7154 72.023 87.6685C71.9939 86.7344 71.61 85.8484 70.9524 85.1982C70.2948 84.5479 69.4151 84.1843 68.4996 84.1843C67.584 84.1843 66.7044 84.5479 66.0468 85.1982C65.3892 85.8484 65.0052 86.7344 64.9761 87.6685C64.978 86.717 65.3494 85.805 66.0088 85.1325C66.6683 84.46 67.5621 84.0818 68.4942 84.0809ZM68.4942 84.0809C69.4279 84.0799 70.3239 84.4571 70.9855 85.1297C71.647 85.8023 72.0202 86.7154 72.023 87.6685C71.9939 86.7344 71.61 85.8484 70.9524 85.1982C70.2948 84.5479 69.4151 84.1843 68.4996 84.1843C67.584 84.1843 66.7044 84.5479 66.0468 85.1982C65.3892 85.8484 65.0052 86.7344 64.9761 87.6685C64.978 86.717 65.3494 85.805 66.0088 85.1325C66.6683 84.46 67.5621 84.0818 68.4942 84.0809ZM68.4942 84.0809C69.4279 84.0799 70.3239 84.4571 70.9855 85.1297C71.647 85.8023 72.0202 86.7154 72.023 87.6685C71.9939 86.7344 71.61 85.8484 70.9524 85.1982C70.2948 84.5479 69.4151 84.1843 68.4996 84.1843C67.584 84.1843 66.7044 84.5479 66.0468 85.1982C65.3892 85.8484 65.0052 86.7344 64.9761 87.6685C64.978 86.717 65.3494 85.805 66.0088 85.1325C66.6683 84.46 67.5621 84.0818 68.4942 84.0809ZM83.833 25.3132H53.1661C50.6168 25.3209 48.1744 26.3598 46.3742 28.2023C44.5739 30.0448 43.5625 32.5406 43.5615 35.1429V100.868C43.5681 103.466 44.5821 105.956 46.3819 107.793C48.1817 109.63 50.6208 110.666 53.1661 110.672H83.833C86.3783 110.666 88.8174 109.63 90.6172 107.793C92.417 105.956 93.431 103.466 93.4376 100.868V35.1429C93.4367 32.5406 92.4252 30.0448 90.625 28.2023C88.8247 26.3598 86.3823 25.3209 83.833 25.3132ZM58.0288 64.6902C57.9901 64.6902 57.953 64.6745 57.9257 64.6465C57.8983 64.6186 57.883 64.5808 57.883 64.5413V39.2607C57.8847 39.2218 57.9006 39.185 57.9276 39.1574C57.9546 39.1299 57.9907 39.1136 58.0288 39.1119H78.9703C79.0084 39.1136 79.0445 39.1299 79.0715 39.1574C79.0985 39.185 79.1144 39.2218 79.1161 39.2607V64.5413C79.1161 64.5808 79.1008 64.6186 79.0734 64.6465C79.0461 64.6745 79.009 64.6902 78.9703 64.6902H58.0288Z" fill="#0096D5"/>
<path d="M68.4948 76.9128C66.4099 76.9121 64.3716 77.5426 62.6377 78.7246C60.9039 79.9066 59.5524 81.5869 58.7542 83.5531C57.956 85.5192 57.747 87.6828 58.1535 89.7703C58.5601 91.8577 59.564 93.7752 61.0383 95.2801C62.5126 96.785 64.391 97.8098 66.4359 98.2249C68.4808 98.6399 70.6003 98.4265 72.5264 97.6117C74.4525 96.7969 76.0986 95.4173 77.2565 93.6474C78.4144 91.8775 79.0321 89.7968 79.0314 87.6685C79.0267 84.8174 77.9151 82.0844 75.9401 80.0684C73.9651 78.0524 71.2879 76.9176 68.4948 76.9128ZM68.4948 94.6477C67.1426 94.6477 65.8207 94.2384 64.6964 93.4715C63.572 92.7046 62.6957 91.6146 62.1783 90.3393C61.6608 89.0641 61.5254 87.6608 61.7892 86.3069C62.053 84.9531 62.7042 83.7095 63.6603 82.7335C64.6165 81.7574 65.8348 81.0927 67.161 80.8234C68.4873 80.5541 69.8619 80.6923 71.1112 81.2206C72.3606 81.7488 73.4283 82.6434 74.1796 83.7911C74.9309 84.9388 75.3319 86.2882 75.3319 87.6685C75.33 89.5189 74.609 91.293 73.3273 92.6014C72.0455 93.9099 70.3075 94.6458 68.4948 94.6477Z" fill="#0096D5"/>
<path d="M78.9707 35.4807H58.0293C57.0474 35.4816 56.1061 35.8802 55.4118 36.5889C54.7176 37.2976 54.3271 38.2585 54.3262 39.2608V64.5413C54.3271 65.5435 54.7176 66.5045 55.4118 67.2132C56.1061 67.9219 57.0474 68.3204 58.0293 68.3214H78.9707C79.9526 68.3204 80.8939 67.9219 81.5882 67.2132C82.2824 66.5045 82.6729 65.5435 82.6738 64.5413V39.2608C82.6729 38.2585 82.2824 37.2976 81.5882 36.5889C80.8939 35.8802 79.9526 35.4816 78.9707 35.4807ZM78.9707 64.5304H58.0293V39.2608H78.9707V64.5304Z" fill="#0096D5"/>
</g>
</svg>
