<svg width="217" height="241" viewBox="0 0 217 241" fill="none" xmlns="http://www.w3.org/2000/svg">
<path d="M112.15 55.88C112.15 56.21 112.15 56.55 112.15 56.88C112.21 67.63 112.21 67.63 101.63 69.13C96.5999 69.84 94.31 74.84 97.41 78.82C104.86 88.38 103.84 87.55 96.1099 95.34C95.7599 95.69 95.3999 96.05 95.0499 96.4C87.81 103.66 88.45 104.76 79.2999 97.69C74.7299 94.16 69.8599 96.32 69.0999 102.05C68.8599 103.87 68.5099 105.67 68.2899 107.49C67.91 110.68 66.1799 112.18 62.9499 112.14C58.4499 112.08 53.9499 112.05 49.4499 112.15C45.9899 112.23 44.1699 110.74 43.8699 107.25C43.6799 105.1 43.2899 102.96 42.9199 100.83C42.2299 96.85 37.0199 94.42 33.9399 96.95C23.4799 105.55 24.3499 103.47 15.5699 94.85C8.00994 87.4 7.82995 88.1 14.5199 79C15.5899 77.55 15.8599 74.64 15.1499 72.98C14.4399 71.31 12.1999 70.03 10.3499 69.17C8.75995 68.43 6.77995 68.41 4.95995 68.27C1.47995 68 -0.0700539 66.21 -5.39341e-05 62.74C0.0899461 58.24 0.0799461 53.74 0.00994607 49.24C-0.0400539 46.03 1.39995 44.25 4.61995 43.87C6.76995 43.62 8.90995 43.31 11.0499 42.96C15.3599 42.27 17.8099 37.06 15.0899 33.74C6.39995 23.15 9.16995 23.98 16.7199 16.09C17.1799 15.61 17.6599 15.15 18.1299 14.68C24.5799 8.25 24.5799 8.25 32.0099 13.8C37.7999 18.13 42.2199 16.3 43.1999 9.18C44.4599 0 44.4599 0 53.6399 0C53.9699 0 54.3099 0 54.6399 0C66.5699 0 66.5699 0 69.2699 11.76C70.0799 15.27 75.1699 17.26 78.2499 15.26C88.0999 8.86 88.0999 8.86 96.5899 17.25C97.5399 18.19 98.3999 19.23 99.4299 20.06C103.25 23.14 103.02 26.16 100.06 29.88C97.8999 32.59 93.6499 35.17 97.0399 39.62C98.09 41 99.7099 42.15 101.31 42.87C102.77 43.53 104.56 43.63 106.21 43.68C110.98 43.84 112.62 46.42 112.19 50.89C112.01 52.53 112.14 54.21 112.15 55.88ZM8.36995 60.48C14.6199 61.54 20.2499 61.47 23.5299 69.61C26.7699 77.66 22.8899 81.58 19.5099 86.19C21.6099 88.67 23.4199 90.81 25.4599 93.24C30.6099 88.74 34.7099 85.64 42.6799 88.67C51.0399 91.85 50.3699 97.88 51.6999 103.64C54.8899 103.64 57.6299 103.64 60.7399 103.64C61.4399 97.25 61.5499 91.92 69.4899 88.69C77.4899 85.44 81.53 88.89 86.4799 92.92C88.77 90.74 90.88 88.72 93.16 86.54C88.5399 81.39 85.8399 77.19 88.7699 69.29C91.8999 60.85 98.2399 61.98 103.79 60.37C103.79 57.21 103.79 54.59 103.79 51.61C97.52 50.59 91.9399 50.5 88.6399 42.48C85.3299 34.44 89.2899 30.51 92.8199 25.71C90.6699 23.35 88.7899 21.28 86.7099 19C81.5899 23.05 77.5999 26.55 69.5699 23.47C61.2299 20.27 61.7299 14.36 60.4999 8.43C57.3499 8.43 54.6099 8.43 51.6699 8.43C50.3999 14.55 50.7799 20.22 42.7299 23.39C34.7499 26.56 30.6599 23.34 25.9999 19.4C23.5699 21.49 21.3499 23.4 18.8799 25.53C23.6199 30.66 26.4099 34.83 23.4099 42.75C20.2499 51.1 14.0399 50.22 8.36995 51.78C8.36995 54.89 8.36995 57.51 8.36995 60.48Z" fill="white" fill-opacity="0.5"/>
<path d="M112.56 159.84C123.05 159.84 133.17 159.84 144.01 159.84C144.01 157.28 143.91 154.85 144.03 152.44C144.29 147.16 147.26 144.08 152.58 144.05C170.89 143.95 189.21 143.95 207.52 144.05C213.07 144.08 216.05 147.22 216.13 152.88C216.24 160.37 216.23 167.87 216.1 175.36C216 181.01 213.05 184.06 207.41 184.09C189.26 184.19 171.11 184.18 152.97 184.1C147.07 184.07 144.21 181.03 144.03 175.09C143.97 172.96 144.02 170.83 144.02 168.43C133.28 168.43 123.04 168.43 112.8 168.43C111.14 176.44 109.3 177.62 99.2199 175.95C93.9799 175.08 88.7799 173.73 83.7599 172.03C82.1899 171.49 80.6799 169.24 80.1799 167.47C79.5599 165.32 79.6199 162.75 80.1699 160.55C80.5899 158.9 81.9999 156.61 83.3899 156.25C90.1199 154.53 96.9399 152.81 103.83 152.16C111.38 151.43 111.57 152.07 112.56 159.84ZM207.86 152.51C189.09 152.51 170.75 152.51 152.47 152.51C152.47 160.48 152.47 168.05 152.47 175.59C171.14 175.59 189.48 175.59 207.66 175.59C207.66 172.92 207.66 170.68 207.66 167.87C192.94 167.87 178.58 167.87 164.31 167.87C164.31 165.01 164.31 162.75 164.31 159.9C178.96 159.9 193.33 159.9 207.86 159.9C207.86 157.17 207.86 155.03 207.86 152.51ZM88.2699 163.21C88.2699 163.77 88.2699 164.33 88.2799 164.89C93.2899 166.05 98.2999 167.2 103.75 168.46C103.75 165.24 103.75 162.85 103.75 159.62C98.2799 160.89 93.2699 162.05 88.2699 163.21Z" fill="white" fill-opacity="0.5"/>
<path d="M55.9999 120.23C58.8699 120.23 61.1499 120.23 64.1499 120.23C64.1499 122.05 64.1499 123.81 64.1499 125.58C64.1499 153.56 64.1399 181.55 64.1599 209.53C64.1699 224.14 72.0599 231.98 86.7799 231.99C111.6 232.02 136.42 232.03 161.24 231.99C176.26 231.96 184.01 224.17 184.04 209.2C184.05 203.72 184.04 198.24 184.04 192.38C186.7 192.38 189.08 192.38 192.53 192.38C192.1 201.27 192.59 210.33 191.02 219.01C188.81 231.18 177.53 239.93 165.12 240.02C137.8 240.23 110.48 240.25 83.1699 240.02C68.8999 239.9 57.0499 228.32 56.1499 214.23C55.8799 210.08 56.0199 205.91 56.0099 201.74C55.9899 174.77 55.9999 147.8 55.9999 120.23Z" fill="white" fill-opacity="0.5"/>
<path d="M112.27 32.12C112.27 29.12 112.27 26.84 112.27 24.28C113.94 24.18 115.39 24.02 116.85 24.02C132.34 24 147.83 23.95 163.33 24.03C180.02 24.12 192.07 36.06 192.13 52.68C192.23 79 192.16 105.32 192.15 131.64C192.15 132.94 192.04 134.24 191.96 135.82C189.32 135.82 186.93 135.82 184.02 135.82C184.02 123.97 184.02 112.36 184.02 100.74C184.02 85.08 184.09 69.42 184 53.76C183.92 40.27 175.98 32.26 162.59 32.16C147.76 32.06 132.94 32.12 118.11 32.11C116.29 32.12 114.49 32.12 112.27 32.12Z" fill="white" fill-opacity="0.5"/>
<path d="M124.33 199.99C126.99 199.99 129.66 199.88 132.31 200.01C138.97 200.33 144.02 205.41 144.15 211.8C144.28 218.21 139.42 223.69 132.81 224.02C127.01 224.31 121.17 224.32 115.36 224.02C108.73 223.68 103.94 218.27 104.03 211.8C104.12 205.42 109.19 200.31 115.85 200.02C118.67 199.9 121.5 200 124.33 199.99ZM124.22 215.97C124.22 215.96 124.22 215.95 124.22 215.95C126.87 215.95 129.63 216.4 132.13 215.78C133.62 215.41 135.68 213.36 135.67 212.07C135.67 210.78 133.5 208.5 132.14 208.38C126.88 207.93 121.52 207.88 116.27 208.35C114.81 208.48 113.57 210.94 112.23 212.33C113.58 213.54 114.76 215.45 116.31 215.81C118.82 216.4 121.57 215.97 124.22 215.97Z" fill="white" fill-opacity="0.5"/>
<path d="M120.22 111.88C120.22 109.22 120.22 106.95 120.22 104.32C136.09 104.32 151.82 104.32 167.84 104.32C167.84 106.84 167.84 109.22 167.84 111.88C152.01 111.88 136.41 111.88 120.22 111.88Z" fill="white" fill-opacity="0.5"/>
<path d="M120.42 120.22C136.36 120.22 151.95 120.22 167.86 120.22C167.86 122.84 167.86 125.22 167.86 127.88C152 127.88 136.41 127.88 120.42 127.88C120.42 125.45 120.42 123.07 120.42 120.22Z" fill="white" fill-opacity="0.5"/>
<path d="M136.24 95.84C136.24 93.1 136.24 90.84 136.24 88.27C146.82 88.27 157.16 88.27 167.83 88.27C167.83 90.78 167.83 93.15 167.83 95.84C157.36 95.84 147.01 95.84 136.24 95.84Z" fill="white" fill-opacity="0.5"/>
<path d="M120.23 47.74C120.23 45.15 120.23 42.88 120.23 40.29C126.85 40.29 133.23 40.29 139.88 40.29C139.88 42.79 139.88 45.07 139.88 47.74C133.53 47.74 127.14 47.74 120.23 47.74Z" fill="white" fill-opacity="0.5"/>
<path d="M127.92 88.3899C127.92 90.9899 127.92 93.2599 127.92 95.8199C125.31 95.8199 122.92 95.8199 120.28 95.8199C120.28 93.3199 120.28 91.0499 120.28 88.3899C122.67 88.3899 125.06 88.3899 127.92 88.3899Z" fill="white" fill-opacity="0.5"/>
<path d="M80.1299 56.19C80.0699 69.53 69.2099 80.21 55.8299 80.1C42.7399 79.99 31.9999 69.21 32.0099 56.17C32.0199 42.6 43.0099 31.79 56.5899 31.98C69.6099 32.17 80.1899 43.05 80.1299 56.19ZM71.9999 55.91C71.8599 47.1 64.7199 40.1 55.9199 40.14C47.2199 40.18 40.0899 47.45 40.1699 56.21C40.2499 64.93 47.5299 72.07 56.2399 71.97C64.9799 71.88 72.1399 64.58 71.9999 55.91Z" fill="white" fill-opacity="0.5"/>
<path d="M59.89 16.3C59.89 18.79 59.89 21.06 59.89 23.73C57.5 23.73 55.11 23.73 52.37 23.73C52.37 21.38 52.37 19 52.37 16.3C54.74 16.3 57 16.3 59.89 16.3Z" fill="white" fill-opacity="0.5"/>
<path d="M16.2 59.7701C16.2 57.2001 16.2 54.9601 16.2 52.3501C18.68 52.3501 21.05 52.3501 23.78 52.3501C23.78 54.6701 23.78 57.0301 23.78 59.7701C21.48 59.7701 19.12 59.7701 16.2 59.7701Z" fill="white" fill-opacity="0.5"/>
<path d="M95.96 52.3201C95.96 54.9501 95.96 57.2001 95.96 59.7801C93.42 59.7801 91.06 59.7801 88.34 59.7801C88.34 57.3901 88.34 55.0301 88.34 52.3201C90.75 52.3201 93.11 52.3201 95.96 52.3201Z" fill="white" fill-opacity="0.5"/>
<path d="M59.8499 95.9C57.0899 95.9 54.8399 95.9 52.2999 95.9C52.2999 93.31 52.2999 90.94 52.2999 88.28C54.8299 88.28 57.1999 88.28 59.8499 88.28C59.8499 90.82 59.8499 93.18 59.8499 95.9Z" fill="white" fill-opacity="0.5"/>
<path d="M24.6599 30.6601C26.9399 28.7301 28.8199 27.1301 31.1999 25.1201C32.5699 26.7201 34.1499 28.5801 35.9599 30.7001C34.2399 32.3701 32.4199 34.1501 30.3799 36.1301C28.5199 34.3601 26.7499 32.6601 24.6599 30.6601Z" fill="white" fill-opacity="0.5"/>
<path d="M81.7899 25.45C83.6699 27.15 85.3899 28.6999 87.5299 30.6299C85.3699 32.5199 83.53 34.1399 81.16 36.2099C79.73 34.4299 78.2099 32.53 76.5699 30.49C78.0899 29.02 79.9299 27.25 81.7899 25.45Z" fill="white" fill-opacity="0.5"/>
<path d="M35.43 82.03C34.15 83.51 32.54 85.35 30.81 87.33C28.69 85.12 26.99 83.35 24.96 81.23C26.78 79.51 28.57 77.82 30.75 75.76C32.33 77.88 33.8 79.84 35.43 82.03Z" fill="white" fill-opacity="0.5"/>
<path d="M76.09 81.1101C77.75 79.4301 79.48 77.6901 81.58 75.5801C83.53 77.7001 85.19 79.5001 87.13 81.6001C85.14 83.1501 83.22 84.6501 81.05 86.3401C79.85 85.0801 78.11 83.2401 76.09 81.1101Z" fill="white" fill-opacity="0.5"/>
</svg>
